<?xml version="1.0" encoding="utf-8"?>
<!-- Generator: Adobe Illustrator 27.5.0, SVG Export Plug-In . SVG Version: 6.00 Build 0)  -->
<svg version="1.1" xmlns="http://www.w3.org/2000/svg" xmlns:xlink="http://www.w3.org/1999/xlink" x="0px" y="0px"
	 viewBox="0 0 600 500" style="enable-background:new 0 0 600 500;" xml:space="preserve">
<g id="BACKGROUND">
	<rect style="fill:#EDF0F7;" width="600" height="500"/>
</g>
<g id="OBJECTS">
	<path style="fill:#D3D8EB;" d="M144.532,315.063c13.924,101.836,86.801,167.144,217.852,113.257s129.522-300.927-0.153-338.217
		C232.555,52.812,120.384,138.447,144.532,315.063z"/>
	<g>
		<g>
			<path style="fill:#292F44;" d="M329.237,395.59c0.585-0.282,1.133-0.631,1.615-1.059c0.914-0.799,1.603-1.839,2.08-2.982
				c0.953-2.306,1.138-4.919,1.112-7.481c-0.039-2.578-0.321-5.164-0.652-7.75c-0.327-2.59-0.739-5.175-0.94-7.835
				c-0.028-0.371,0.25-0.694,0.621-0.722c0.233-0.018,0.448,0.086,0.582,0.258l0.009,0.012c3.224,4.198,6.598,8.286,10.175,12.173
				c1.792,1.939,3.635,3.829,5.568,5.607c1.935,1.757,3.956,3.478,6.161,4.706c1.069,0.587,2.33,1.076,3.18,0.859
				c0.409-0.092,0.676-0.368,0.908-0.81c0.222-0.446,0.335-1.032,0.389-1.628c0.181-2.441-0.349-5.068-0.921-7.599
				c-1.23-5.095-2.955-10.108-4.788-15.067c-0.181-0.49,0.069-1.034,0.559-1.215c0.324-0.12,0.675-0.048,0.925,0.154
				c3.312,2.679,6.649,5.323,10.081,7.806c1.718,1.237,3.46,2.437,5.248,3.526c1.779,1.065,3.649,2.111,5.492,2.587
				c0.915,0.239,1.775,0.184,2.021-0.169c0.354-0.335,0.461-1.334,0.37-2.268c-0.197-1.939-0.843-3.958-1.544-5.918
				c-1.45-3.935-3.274-7.777-5.174-11.57c-0.267-0.532-0.051-1.18,0.481-1.446c0.408-0.204,0.889-0.12,1.209,0.167
				c3.919,3.544,8.176,6.731,12.714,9.405c2.271,1.328,4.616,2.531,7.034,3.492c2.402,0.94,4.945,1.716,7.342,1.711
				c1.182-0.003,2.302-0.282,2.924-0.908c0.628-0.603,0.882-1.637,0.794-2.803c-0.175-2.344-1.221-4.806-2.372-7.112
				c-2.389-4.643-5.489-8.992-8.719-13.202c-0.405-0.528-0.305-1.284,0.223-1.689c0.486-0.372,1.164-0.318,1.585,0.104l0.005,0.006
				c3.265,3.268,6.794,6.323,10.744,8.578c1.965,1.124,4.043,2.061,6.169,2.533c1.061,0.259,2.125,0.333,3.145,0.288
				c1.003-0.099,1.948-0.372,2.666-0.893c0.713-0.519,1.219-1.264,1.418-2.188c0.199-0.92,0.169-1.944-0.027-2.973
				c-0.428-2.068-1.465-4.09-2.694-5.961c-1.231-1.885-2.734-3.621-4.337-5.256c-1.584-1.658-3.354-3.148-5.132-4.618l-0.012-0.01
				c-0.534-0.442-0.609-1.232-0.168-1.766c0.221-0.268,0.535-0.421,0.855-0.45c3.971-0.355,7.919-1.086,11.73-2.235
				c1.907-0.566,3.772-1.26,5.561-2.074c1.769-0.823,3.53-1.763,4.901-2.964c0.696-0.575,1.277-1.274,1.48-1.851
				c0.064-0.146,0.036-0.255,0.09-0.38c-0.039-0.102-0.008-0.199-0.051-0.299c-0.077-0.186-0.224-0.422-0.501-0.646
				c-0.518-0.477-1.413-0.819-2.264-1.119c-0.458-0.12-0.9-0.267-1.371-0.368l-1.424-0.283c-3.878-0.596-7.923-0.671-11.947-0.572
				c-0.715,0.018-1.308-0.547-1.326-1.262c-0.014-0.559,0.334-1.046,0.827-1.239c3.654-1.421,7.224-3.086,10.613-5.024
				c1.688-0.975,3.34-2.011,4.875-3.159c0.765-0.575,1.505-1.175,2.173-1.814c0.664-0.634,1.28-1.322,1.658-1.993
				c0.189-0.329,0.296-0.651,0.305-0.849c0.01-0.205-0.019-0.249-0.148-0.409c-0.282-0.329-1.143-0.656-1.993-0.807
				c-1.755-0.331-3.719-0.308-5.645-0.221c-3.883,0.217-7.798,0.808-11.686,1.501c-0.683,0.124-1.336-0.329-1.461-1.011
				c-0.102-0.563,0.193-1.109,0.681-1.351c4.513-2.223,8.964-4.579,13.221-7.208c2.121-1.319,4.205-2.701,6.129-4.226
				c0.957-0.762,1.881-1.564,2.659-2.417c0.382-0.424,0.73-0.87,0.95-1.279c0.102-0.196,0.182-0.395,0.186-0.492
				c0.004-0.049,0.005-0.06,0.006-0.065c-0.014-0.034-0.404-0.237-0.851-0.294c-0.501-0.085-1.079-0.102-1.66-0.09
				c-1.172,0.03-2.39,0.183-3.602,0.386c-2.431,0.407-4.863,1.008-7.278,1.666c-4.832,1.337-9.612,2.942-14.353,4.654
				c-0.606,0.219-1.275-0.095-1.493-0.701c-0.216-0.598,0.089-1.258,0.68-1.486c3.551-1.362,6.981-3.073,10.139-5.173
				c1.579-1.046,3.092-2.189,4.467-3.455c1.37-1.257,2.623-2.667,3.436-4.179c0.382-0.747,0.636-1.538,0.57-2.156
				c-0.058-0.607-0.396-1.054-1.035-1.437c-1.333-0.726-3.258-0.91-5.096-0.871c-3.737,0.103-7.538,0.814-11.273,1.697
				c-0.589,0.142-1.183-0.22-1.325-0.81c-0.107-0.442,0.076-0.889,0.419-1.144c3.416-2.496,6.813-5.013,10.072-7.664
				c1.624-1.329,3.217-2.693,4.686-4.14c0.73-0.725,1.429-1.474,2.033-2.252c0.589-0.755,1.119-1.649,1.171-2.253
				c0.002-0.288-0.017-0.372-0.208-0.55c-0.189-0.174-0.564-0.348-0.988-0.46c-0.856-0.234-1.875-0.296-2.879-0.309
				c-2.031-0.006-4.115,0.209-6.186,0.487c-4.15,0.565-8.289,1.413-12.411,2.321c-0.551,0.123-1.098-0.224-1.222-0.775
				c-0.103-0.461,0.126-0.92,0.525-1.13c3.568-1.863,7.033-3.956,10.339-6.255c1.652-1.15,3.265-2.355,4.796-3.638
				c1.515-1.282,3.013-2.649,4.113-4.154c0.265-0.373,0.502-0.759,0.644-1.115c0.063-0.155,0.099-0.297,0.118-0.416
				c-0.004-0.046,0.011-0.089,0.013-0.135c0.003-0.079-0.004-0.141-0.025-0.159c0.004-0.071-0.216-0.233-0.58-0.34
				c-0.362-0.104-0.805-0.16-1.264-0.175c-1.864-0.041-3.866,0.312-5.815,0.72c-3.921,0.842-7.805,2.035-11.658,3.289
				c-0.499,0.163-1.036-0.11-1.2-0.609c-0.149-0.456,0.067-0.944,0.485-1.149c5.16-2.532,9.979-5.829,14.486-9.457
				c2.247-1.826,4.417-3.75,6.469-5.782c2.037-2.038,3.99-4.188,5.561-6.536c0.759-1.166,1.473-2.429,1.694-3.634
				c0.118-0.607,0.029-1.101-0.221-1.411c-0.254-0.322-0.803-0.54-1.422-0.633c-1.257-0.193-2.696,0.012-4.076,0.265
				c-1.394,0.271-2.783,0.652-4.162,1.073c-5.516,1.734-10.866,4.106-16.148,6.566l-0.023,0.011
				c-0.354,0.165-0.774,0.012-0.939-0.342c-0.105-0.226-0.078-0.483,0.046-0.68c1.999-3.118,4.625-5.542,7.158-8.007
				c2.555-2.441,5.155-4.818,7.521-7.385c1.176-1.286,2.296-2.62,3.244-4.05c0.932-1.425,1.746-2.968,1.953-4.588
				c0.149-0.807,0.042-1.611-0.136-2.385c-0.223-0.665-0.532-1.309-0.966-1.885c-1.151-0.349-2.45-0.184-3.516,0.484
				c-9.336,5.857-18.353,12.211-27.003,19.029c0.28,0.149,0.551,0.322,0.808,0.536c0.463,0.394,0.843,0.913,1.07,1.486
				c0.228,0.575,0.294,1.175,0.3,1.752c-0.012,1.158-0.297,2.235-0.657,3.253c-0.734,2.037-1.765,3.896-2.845,5.705
				c-1.092,1.802-2.26,3.546-3.455,5.264l-7.267,10.177c-1.189,1.697-2.351,3.41-3.379,5.173c-0.468,0.807-0.899,1.627-1.264,2.455
				c1.016-1.016,2.062-2.01,3.185-2.951c0.49-0.411,0.997-0.81,1.55-1.181c0.555-0.37,1.117-0.736,1.896-0.98
				c0.175-0.07,0.436-0.094,0.652-0.131c0.182,0.007,0.357-0.003,0.549,0.03c2.373-2.978,4.866-5.857,7.361-8.701
				c2.656-3.026,5.215-6.11,7.6-9.342c0.174-0.236,0.507-0.286,0.743-0.112c0.233,0.172,0.284,0.5,0.118,0.735
				c-2.335,3.306-4.863,6.484-7.462,9.573c-2.431,2.89-4.828,5.778-7.106,8.761c0.087,0.152,0.161,0.302,0.193,0.436
				c0.258,0.902,0.157,1.578,0.087,2.258c-0.4,2.646-1.282,4.979-2.147,7.34c-0.889,2.343-1.863,4.64-2.872,6.919
				c-2.014,4.557-4.203,9.022-6.432,13.464c-1.556,3.082-3.15,6.14-4.767,9.19c0.665-0.379,1.372-0.722,2.154-1
				c0.611-0.191,1.32-0.343,2.152-0.2c0.847,0.121,1.693,0.814,2.018,1.526c0.357,0.708,0.45,1.374,0.508,2.004
				c0.056,0.635,0.025,1.231-0.016,1.823c-0.218,2.341-0.799,4.514-1.44,6.66c-0.134,0.437-0.288,0.864-0.43,1.297
				c3.839-2.206,7.27-5.21,9.95-8.761c1.598-2.135,2.913-4.488,3.785-7.003c0.875-2.512,1.287-5.186,1.142-7.851
				c-0.018-0.293,0.206-0.545,0.499-0.562c0.288-0.017,0.535,0.201,0.561,0.486c0.236,2.804-0.118,5.652-0.967,8.334
				c-0.845,2.686-2.161,5.207-3.775,7.499c-1.617,2.294-3.531,4.369-5.654,6.203c-1.984,1.709-4.158,3.204-6.501,4.429
				c-0.273,0.744-0.545,1.489-0.835,2.225c-1.635,4.126-3.472,8.157-5.51,12.093c-1.023,1.967-2.09,3.912-3.249,5.82
				c-0.18,0.295-0.366,0.587-0.551,0.88c0.048-0.025,0.094-0.054,0.143-0.078c0.886-0.445,1.789-0.868,2.763-1.216
				c0.493-0.168,0.988-0.332,1.547-0.433c0.557-0.092,1.143-0.194,1.91-0.005c0.378,0.114,0.816,0.298,1.14,0.684
				c0.179,0.172,0.271,0.386,0.385,0.59c0.065,0.193,0.151,0.414,0.169,0.593c0.113,0.758-0.019,1.344-0.154,1.891
				c-0.304,1.072-0.751,1.991-1.234,2.876c-0.973,1.761-2.109,3.366-3.306,4.918c-2.412,3.085-5.086,5.934-8.024,8.525
				c-1.474,1.29-3.017,2.513-4.69,3.595c-1.097,0.695-2.252,1.345-3.511,1.842c2.46,1.831,4.828,3.824,6.856,6.302
				c0.59,0.797,1.176,1.618,1.55,2.654c0.082,0.267,0.206,0.5,0.246,0.797c0.044,0.294,0.082,0.59,0.112,0.884
				c-0.028,0.316-0.071,0.637-0.124,0.951c-0.098,0.307-0.251,0.608-0.393,0.901c-0.732,1.127-1.846,1.586-2.825,1.891
				c-1.009,0.316-2.001,0.389-2.984,0.448c-3.914,0.064-7.663-0.81-11.22-2.151c-2.047-0.8-4.052-1.773-5.911-2.991
				c0.045,0.131,0.101,0.259,0.142,0.391c0.499,1.712,0.75,3.53,0.271,5.411c-0.254,0.901-0.837,1.995-1.998,2.409
				c-1.14,0.389-2.193,0.025-3.014-0.363c-0.961-0.492-1.777-1.112-2.53-1.783c0.152,1.341,0.193,2.683,0.133,4.025
				c-0.106,2.068-0.436,4.145-1.182,6.122c-0.736,1.952-1.995,3.886-3.955,4.956c-0.84,0.469-1.746,0.719-2.666,0.824
				c0.158,0.813,0.316,1.625,0.504,2.432c1.247,5.504,3.086,11.089,7.034,15.187C328.129,395.03,328.661,395.376,329.237,395.59z
				 M403.62,302.441c-0.682,0.878-1.595,1.518-2.542,2.009c-0.944,0.507-1.919,0.911-2.927,1.207
				c-0.285,0.084-0.584-0.08-0.668-0.365c-0.067-0.229,0.025-0.466,0.211-0.595c0.866-0.597,1.765-1.087,2.633-1.592
				c0.863-0.52,1.703-1.011,2.606-1.476l0.009-0.005c0.267-0.137,0.594-0.033,0.731,0.234
				C403.773,302.053,403.745,302.28,403.62,302.441z M396.17,245.405c1.718-1.685,3.285-3.411,4.623-5.332
				c1.345-1.915,2.42-3.996,3.349-6.211c0.113-0.274,0.426-0.405,0.7-0.292c0.227,0.093,0.355,0.33,0.328,0.562
				c-0.315,2.519-1.336,4.94-2.772,7.05c-1.442,2.104-3.344,3.934-5.611,5.089c-0.264,0.135-0.588,0.029-0.722-0.235
				C395.955,245.822,396.007,245.565,396.17,245.405z M403.249,277.16l0.003-0.008c0.094-0.282,0.399-0.433,0.681-0.339
				c0.224,0.075,0.366,0.285,0.367,0.509c0.005,2.186-0.847,4.333-2.134,6.095c-1.285,1.77-3.037,3.224-5.052,4.022
				c-0.274,0.109-0.585-0.026-0.694-0.3c-0.093-0.235-0.008-0.496,0.19-0.635l0.005-0.003c1.626-1.138,3.018-2.514,4.118-4.102
				C401.829,280.804,402.615,279.05,403.249,277.16z M382.261,263.364c-0.252,0.155-0.581,0.077-0.736-0.175
				c-0.132-0.214-0.093-0.486,0.076-0.658c1.588-1.611,3.121-3.216,4.53-4.941c1.419-1.716,2.69-3.54,3.939-5.424
				c0.162-0.247,0.494-0.315,0.741-0.153c0.212,0.139,0.291,0.406,0.207,0.634c-0.822,2.193-2.066,4.219-3.54,6.043
				C385.994,260.507,384.256,262.134,382.261,263.364z M384.451,320.185c0.071-0.216,0.266-0.357,0.48-0.371l0.008,0
				c1.198-0.07,2.354-0.177,3.489-0.381c1.134-0.202,2.24-0.486,3.32-0.847c1.073-0.381,2.127-0.807,3.149-1.324
				c1.037-0.496,2.03-1.08,3.082-1.682l0.008-0.005c0.261-0.15,0.594-0.059,0.744,0.202c0.105,0.184,0.091,0.403-0.017,0.569
				c-0.711,1.088-1.682,1.981-2.747,2.727c-1.08,0.724-2.266,1.305-3.516,1.678c-1.242,0.393-2.541,0.611-3.838,0.639
				c-1.296,0.026-2.597-0.123-3.819-0.525C384.512,320.773,384.357,320.468,384.451,320.185z M376.511,342.512
				c0-0.228,0.14-0.423,0.34-0.503l0.008-0.003c1.115-0.443,2.18-0.907,3.193-1.457c1.013-0.548,1.974-1.164,2.886-1.846
				c0.899-0.698,1.766-1.434,2.575-2.246c0.829-0.797,1.588-1.663,2.398-2.565l0.006-0.007c0.201-0.224,0.546-0.243,0.77-0.042
				c0.158,0.141,0.213,0.354,0.163,0.546c-0.333,1.256-0.975,2.409-1.753,3.451c-0.798,1.027-1.742,1.951-2.811,2.697
				c-1.056,0.763-2.221,1.378-3.443,1.812c-1.222,0.432-2.504,0.699-3.79,0.701C376.754,343.051,376.511,342.81,376.511,342.512z
				 M366.171,353.591l0.007-0.002c1.574-0.529,3.036-1.239,4.348-2.186c0.657-0.469,1.273-0.992,1.857-1.555
				c0.586-0.562,1.117-1.181,1.641-1.828l0.005-0.006c0.187-0.23,0.524-0.266,0.755-0.079c0.188,0.152,0.246,0.406,0.159,0.619
				c-0.344,0.848-0.85,1.623-1.434,2.332c-0.587,0.708-1.277,1.331-2.028,1.862c-1.505,1.052-3.28,1.76-5.101,1.885
				c-0.295,0.02-0.55-0.203-0.571-0.497C365.791,353.887,365.946,353.667,366.171,353.591z"/>
		</g>
		<g>
			<path style="fill:#292F44;" d="M319.329,375.912c1.04-0.041,2.048-0.271,2.933-0.787c1.613-0.909,2.699-2.581,3.347-4.383
				c0.654-1.816,0.942-3.781,1.011-5.74c0.06-1.958-0.09-3.951-0.538-5.82c-0.093-0.386,0.145-0.774,0.531-0.867
				c0.255-0.061,0.511,0.022,0.682,0.196l0.007,0.007c1.13,1.16,2.367,2.276,3.709,2.929c0.661,0.315,1.363,0.462,1.829,0.272
				c0.466-0.159,0.815-0.699,0.998-1.377c0.343-1.385,0.133-3.02-0.327-4.493c-0.469-1.482-1.236-2.893-2.303-3.934l0-0.001
				c-0.006-0.007-0.013-0.012-0.02-0.019c-0.33-0.336-0.325-0.877,0.011-1.207c0.333-0.327,0.87-0.322,1.202,0.005
				c0.007,0.007,0.011,0.014,0.018,0.021l0.001-0.001c2.48,2.516,5.726,4.282,9.086,5.556c3.371,1.248,6.998,2.034,10.509,1.94
				c0.861-0.059,1.736-0.137,2.497-0.391c0.762-0.228,1.454-0.604,1.731-1.08c0.039-0.132,0.108-0.245,0.158-0.373
				c0.006-0.146,0.024-0.285,0.052-0.428c-0.032-0.165-0.057-0.328-0.075-0.494c-0.012-0.165-0.121-0.349-0.173-0.524
				c-0.255-0.713-0.756-1.426-1.273-2.108c-2.234-2.697-5.183-4.954-8.16-7.06c-0.469-0.332-0.58-0.98-0.248-1.449
				c0.16-0.226,0.394-0.369,0.646-0.419l0.016-0.003c1.637-0.32,3.297-1.202,4.838-2.199c1.551-1.008,3.024-2.179,4.435-3.422
				c2.816-2.496,5.413-5.28,7.723-8.252c1.144-1.49,2.225-3.036,3.105-4.64c0.437-0.798,0.82-1.626,1.036-2.405
				c0.102-0.378,0.144-0.76,0.108-0.955c-0.017-0.099-0.034-0.117-0.033-0.105c0.022,0-0.012-0.001-0.082-0.033
				c-0.17-0.055-0.566-0.033-0.945,0.044c-0.387,0.068-0.808,0.205-1.222,0.349c-0.834,0.3-1.673,0.693-2.501,1.112
				c-1.656,0.852-3.28,1.829-4.876,2.853c-0.513,0.329-1.196,0.18-1.525-0.333c-0.307-0.478-0.198-1.104,0.233-1.453l0.031-0.025
				c0.618-0.497,1.307-1.406,1.902-2.249c0.609-0.869,1.187-1.779,1.745-2.703c1.118-1.851,2.16-3.763,3.159-5.697
				c1.99-3.874,3.831-7.837,5.44-11.879c0.802-2.021,1.546-4.063,2.185-6.124c0.625-2.056,1.178-4.156,1.371-6.196
				c0.087-0.988,0.049-2.056-0.247-2.646c-0.158-0.277-0.258-0.339-0.502-0.397c-0.252-0.047-0.661-0.008-1.09,0.135
				c-1.769,0.602-3.553,1.957-5.208,3.274l-0.007,0.006c-0.464,0.369-1.138,0.292-1.507-0.172c-0.276-0.347-0.302-0.814-0.103-1.181
				c4.725-8.678,9.265-17.499,13.366-26.475c1.018-2.246,2-4.508,2.891-6.792c0.864-2.273,1.742-4.621,2.099-6.885
				c0.08-0.54,0.1-1.135,0.004-1.429c-0.014-0.044-0.023-0.072-0.029-0.089c-0.015,0.001-0.032,0.003-0.042-0.003
				c-0.086,0.03-0.143,0.008-0.257,0.055c-0.412,0.117-0.921,0.409-1.392,0.726c-0.479,0.315-0.953,0.679-1.415,1.06
				c-1.856,1.527-3.594,3.281-5.298,5.051l-0.029,0.03c-0.333,0.346-0.883,0.356-1.229,0.023c-0.164-0.158-0.253-0.367-0.265-0.577
				c-0.077-1.355,0.348-2.425,0.761-3.445c0.439-1.01,0.955-1.952,1.497-2.869c1.09-1.829,2.286-3.558,3.505-5.263l7.428-10.061
				c2.384-3.373,4.828-6.799,6.306-10.555c0.351-0.936,0.61-1.903,0.632-2.835c0.029-0.934-0.255-1.785-0.918-2.348
				c-0.437-0.385-1.011-0.639-1.629-0.816c-0.363,0.145-0.717,0.329-1.042,0.514c-2.49,1.426-4.932,2.929-8.592,5.296
				c-10.604,6.882-18.726,17.498-22.575,29.538c-2.383,7.398-3.159,15.206-4.095,22.929c-1.641,13.648-3.791,27.361-8.602,40.243
				c-3.651,9.782-8.95,19.109-17.051,27.766c-1.843,1.974-4.635,3.67-7.07,5.768c-0.919,0.791-1.839,1.582-2.611,2.505
				c-3.204,3.759-3.676,9.147-3.171,14.069c0.365,3.431,1.12,6.811,2.273,10.065C318.375,374.561,318.735,375.371,319.329,375.912z"
				/>
		</g>
		<g>
			<path style="fill:#292F44;" d="M537.469,85.192c0.085-0.68,0.106-1.456-0.368-1.953c-0.563-0.609-1.552-0.509-2.352-0.286
				c-1.637,0.475-3.175,1.321-6.152,3.066c2.313-5.255,3.787-10.886,4.352-16.609c0.385-3.947,0.183-8.357-2.496-11.278
				c-0.523-0.574-1.23-1.098-1.986-0.972c-0.89,0.155-1.372,1.114-1.718,1.947l-14.364,34.953
				c-3.761,9.154-7.539,18.334-12.341,26.98c-9.392,16.91-22.567,31.48-37.103,44.229c-12.261,10.759-25.52,20.299-38.915,29.631
				c0.312,0.514,0.568,1.069,0.761,1.646c0.234,0.932,0.354,1.915,0.193,2.855c-0.237,1.903-1.124,3.572-2.093,5.091
				c-0.99,1.52-2.136,2.905-3.328,4.232c-2.397,2.644-4.991,5.055-7.515,7.509c-1.839,1.812-3.722,3.628-5.303,5.604
				c4.493-2.096,9.052-4.073,13.813-5.616c1.414-0.445,2.846-0.852,4.322-1.152c1.482-0.275,2.986-0.539,4.638-0.314
				c0.802,0.128,1.751,0.381,2.455,1.197c0.154,0.186,0.272,0.386,0.368,0.591c6.107-3.279,11.748-7.389,16.971-11.991
				c5.501-4.827,10.637-10.091,15.922-15.213c0.21-0.205,0.547-0.2,0.751,0.01c0.203,0.209,0.199,0.542-0.006,0.747
				c-5.207,5.178-10.28,10.516-15.772,15.464c-5.349,4.837-11.198,9.205-17.574,12.675c-0.011,0.163-0.029,0.323-0.057,0.471
				c-0.314,1.689-1.111,3.016-1.915,4.302c-0.606,0.921-1.266,1.789-1.946,2.637c3.018-1.777,5.95-3.707,8.794-5.768
				c4.167-3.016,8.171-6.268,12.152-9.556c0.226-0.187,0.561-0.155,0.748,0.071c0.185,0.224,0.155,0.555-0.065,0.743
				c-3.934,3.354-7.904,6.684-12.062,9.794c-4.014,3.006-8.221,5.784-12.641,8.198c-0.238,0.248-0.471,0.5-0.712,0.745
				c-2.083,2.107-4.286,4.082-6.577,5.948c-2.435,1.97-4.956,3.84-7.582,5.56c1.289-0.348,2.584-0.679,3.897-0.965
				c2.031-0.424,4.071-0.815,6.288-0.779c0.558,0.02,1.135,0.075,1.753,0.25c0.497,0.156,1.146,0.436,1.588,1.066
				c5.646-2.691,11.043-5.999,16.01-9.849c0.23-0.182,0.565-0.142,0.746,0.088c0.177,0.224,0.14,0.549-0.073,0.734
				c-5.012,4.257-10.493,7.948-16.346,11.018c-0.052,0.215-0.114,0.419-0.179,0.596c-0.237,0.591-0.545,1.075-0.865,1.533
				c-1.309,1.79-2.86,3.182-4.44,4.536c-1.588,1.339-3.24,2.579-4.928,3.762c-1.582,1.107-3.198,2.16-4.841,3.17
				c2.045-0.396,4.101-0.752,6.176-1.042c2.127-0.291,4.27-0.524,6.481-0.525c1.11,0.017,2.23,0.06,3.425,0.375
				c0.592,0.167,1.232,0.392,1.842,0.921c0.64,0.498,1.008,1.53,0.909,2.292c-0.198,1.528-0.936,2.459-1.596,3.383
				c-0.456,0.591-0.942,1.133-1.437,1.66c4.163-0.887,8.269-2.104,12.282-3.575c5.06-1.864,9.986-4.115,14.711-6.731
				c0.257-0.143,0.58-0.051,0.723,0.206c0.14,0.253,0.052,0.571-0.196,0.717c-4.712,2.757-9.636,5.153-14.72,7.166
				c-4.918,1.937-9.995,3.512-15.211,4.552c-1.047,0.952-2.11,1.878-3.193,2.771c-2.008,1.643-4.056,3.221-6.118,4.773
				c2.234-0.397,4.502-0.681,6.823-0.753c2.016-0.012,4.13,0.045,6.26,1.158c0.516,0.311,1.042,0.698,1.435,1.266
				c0.409,0.536,0.65,1.23,0.714,1.885c0.052,0.581-0.016,1.114-0.134,1.619c9.109-2.777,18.425-4.664,27.757-6.229
				c0.289-0.049,0.563,0.147,0.612,0.436c0.048,0.283-0.14,0.552-0.419,0.609c-9.843,1.989-19.628,4.33-29.04,7.68
				c-0.976,1.594-2.187,2.924-3.478,4.126c-1.048,0.971-2.156,1.857-3.3,2.686c0.56-0.164,1.117-0.336,1.68-0.493
				c2.466-0.679,4.952-1.304,7.514-1.741c1.282-0.217,2.581-0.39,3.94-0.43c0.683-0.014,1.375-0.005,2.124,0.117
				c0.379,0.072,0.762,0.148,1.187,0.334c0.408,0.174,0.894,0.442,1.271,0.987c0.384,0.539,0.469,1.251,0.384,1.759
				c-0.074,0.535-0.258,0.923-0.441,1.288c-0.382,0.706-0.83,1.256-1.29,1.775c-0.854,0.94-1.768,1.742-2.703,2.502
				c5.831-1.869,11.702-3.613,17.619-5.191c8.093-2.161,16.266-4.015,24.486-5.603c0.288-0.056,0.567,0.133,0.622,0.421
				c0.055,0.286-0.13,0.563-0.415,0.621c-8.18,1.675-16.303,3.612-24.34,5.854c-7.467,2.08-14.856,4.429-22.183,6.963
				c-0.787,0.525-1.58,1.04-2.379,1.54c-2.173,1.351-4.384,2.625-6.621,3.844c1.466-0.175,2.939-0.326,4.427-0.414
				c2.044-0.092,4.097-0.148,6.267,0.246c0.542,0.098,1.098,0.245,1.667,0.464c0.145,0.058,0.293,0.122,0.442,0.193
				c4.925-2.3,10.098-4.38,15.572-5.079c0.291-0.037,0.557,0.169,0.595,0.46c0.036,0.278-0.153,0.534-0.424,0.589
				c-4.958,0.992-9.559,3.148-14.01,5.581c0.281,0.516,0.444,1.129,0.387,1.672c-0.054,0.799-0.33,1.426-0.624,1.961
				c-0.607,1.066-1.355,1.861-2.121,2.607c-0.77,0.74-1.579,1.397-2.403,2.021c-1.653,1.242-3.377,2.334-5.141,3.344
				c-1.713,0.975-3.46,1.875-5.235,2.713c2.057,0.088,4.122,0.266,6.197,0.588l1.573,0.316c0.525,0.114,1.053,0.285,1.579,0.428
				c1.051,0.384,2.127,0.741,3.152,1.623c0.277,0.233,0.546,0.524,0.78,0.863c12.772-1.666,25.459-4.108,37.958-7.324
				c0.284-0.073,0.574,0.098,0.647,0.382c0.072,0.278-0.092,0.563-0.366,0.643c-12.335,3.6-24.899,6.446-37.604,8.534
				c-0.052,0.343-0.097,0.712-0.216,1.007c-0.513,1.344-1.373,2.196-2.217,2.929c-1.713,1.478-3.605,2.455-5.518,3.349
				c-1.738,0.787-3.518,1.44-5.322,1.998c10.661,3.007,22.091,3.354,32.932,0.909c0.286-0.065,0.571,0.115,0.635,0.401
				c0.064,0.284-0.113,0.566-0.395,0.634c-11.759,2.803-24.271,2.377-35.862-1.182c-2.374,0.613-4.777,1.089-7.204,1.412
				c1.073,0.934,2.122,1.897,3.11,2.933c1.686,1.726,3.28,3.57,4.624,5.631c1.336,2.055,2.514,4.291,3.046,6.848
				c0.241,1.282,0.308,2.65-0.001,4.033c-0.294,1.383-1.165,2.743-2.362,3.593c-1.198,0.865-2.597,1.229-3.927,1.353
				c-1.33,0.067-2.634-0.047-3.862-0.345c-2.475-0.558-4.732-1.598-6.845-2.807c-1.249-0.717-2.442-1.507-3.597-2.341
				c1.103,1.73,2.142,3.509,3.09,5.357c1.202,2.469,2.374,5.027,2.606,8.055c0.048,0.755,0.004,1.556-0.22,2.368
				c-0.043,0.158-0.101,0.316-0.16,0.474c6.681,7.544,14.34,14.226,22.772,19.818c0.245,0.162,0.311,0.492,0.149,0.737
				c-0.159,0.24-0.481,0.307-0.724,0.157c-8.524-5.273-16.38-11.675-23.317-18.963c-0.01,0.009-0.017,0.021-0.027,0.03
				c-1.344,1.267-3.07,1.53-4.524,1.544c-2.174-0.019-4.18-0.498-6.101-1.143c4.53,11.601,10.362,22.721,17.382,33.036
				c0.166,0.242,0.105,0.573-0.137,0.739c-0.239,0.164-0.567,0.104-0.735-0.132c-7.54-10.687-13.812-22.268-18.674-34.438
				c-2.537-1.027-4.947-2.282-7.275-3.659c-3.209-1.914-6.249-4.078-9.143-6.42c1.089,2.361,2.12,4.756,3.016,7.227
				c0.716,2.056,1.398,4.136,1.628,6.454c0.04,0.588,0.055,1.191-0.039,1.836c-0.096,0.634-0.316,1.369-0.881,1.988
				c-0.561,0.639-1.415,0.91-2.096,0.951c-0.701,0.049-1.321-0.058-1.904-0.199c-2.298-0.62-4.18-1.736-6.05-2.854
				c-1.852-1.141-3.621-2.374-5.36-3.64c-2.566-1.877-5.052-3.841-7.517-5.825c1.393,3.982,2.677,8.011,3.632,12.161
				c0.518,2.445,1.024,4.911,0.915,7.55c6.308,9.404,14.017,17.86,22.834,24.999c0.228,0.185,0.263,0.519,0.079,0.747
				c-0.183,0.226-0.516,0.261-0.744,0.081c-8.573-6.764-16.163-14.788-22.493-23.71c-0.075,0.238-0.162,0.477-0.281,0.716
				c-0.348,0.734-1.107,1.501-2.021,1.684c-0.892,0.205-1.703,0.048-2.41-0.171c-0.712-0.227-1.354-0.54-1.969-0.878
				c-1.184-0.676-2.27-1.448-3.304-2.271c3.463,7.766,7.19,15.423,11.564,22.698c0.153,0.25,0.074,0.577-0.177,0.73
				c-0.249,0.152-0.576,0.071-0.73-0.176c-4.959-8.085-9.104-16.611-12.973-25.237c-0.272-0.246-0.547-0.49-0.817-0.738
				c-1.96-1.837-3.81-3.771-5.605-5.749c-3.061-3.388-5.951-6.914-8.731-10.523c0.191,1.814,0.442,3.639,0.657,5.47
				c0.309,2.608,0.573,5.238,0.589,7.897c-0.002,2.645-0.199,5.381-1.273,7.933c-0.539,1.263-1.338,2.456-2.407,3.372
				c-0.232,0.202-0.481,0.383-0.735,0.555c1.007,7.566,2.468,15.058,4.383,22.454c0.779,3.028,1.661,6.079,3.345,8.71
				c0.375,0.594,0.848,1.189,1.531,1.339c1.466,0.31,2.349-1.581,2.592-3.055c0.775-4.67,0.92-9.446,0.44-14.145
				c1.333,4.009,2.667,8.017,4.008,12.013c0.443,1.329,0.907,2.708,1.87,3.722c0.965,1.024,2.569,1.576,3.798,0.915
				c1.521-0.82,1.717-2.881,1.637-4.602c-0.184-3.654-0.796-7.282-0.848-9.899c4.943,4.594,9.887,9.199,14.84,13.792
				c0.88,0.825,1.782,1.655,2.881,2.129c1.101,0.485,2.461,0.546,3.445-0.14c1.014-0.702,1.415-2.047,1.319-3.275
				c-0.106-1.226-0.641-2.373-1.18-3.487c-3.094-6.439-6.554-12.703-10.415-18.764c7.683,8.067,15.382,16.153,24.042,23.135
				c2.148,1.741,4.416,3.435,7.073,4.189c1.248,0.356,2.662,0.471,3.785-0.179c1.425-0.811,1.99-2.667,1.754-4.301
				c-0.223-1.625-1.084-3.084-1.926-4.503c-3.186-5.377-6.371-10.755-9.156-17.737c6.297,6.383,12.594,12.766,19.21,18.811
				c4.599,4.2,9.564,8.333,15.558,9.981c2.295,0.635,5.095,0.729,6.652-1.054c1.337-1.541,1.201-3.837,0.793-5.825
				c-3.195-15.833-17.268-26.962-24.471-41.408c8.966,9.98,18.18,20.157,30.034,26.423c1.846,0.979,3.814,1.868,5.911,1.925
				c2.085,0.049,4.323-0.922,5.206-2.813c0.561-1.204,0.505-2.604,0.345-3.928c-0.937-7.383-5.072-13.971-9.736-19.765
				c-4.666-5.804-9.978-11.124-13.116-17.771c11.721,1.255,23.784-0.864,34.376-6.049c2.312-1.139,4.892-2.964,4.717-5.544
				c-0.176-2.743-3.292-4.182-5.95-4.892c-3.693-0.981-7.455-1.676-11.254-2.081c4.486-1.336,8.693-3.58,12.301-6.556
				c1.887-1.56,3.752-3.734,3.711-6.505c10.986-1.924,21.43-6.883,29.849-14.185c1.57-1.362,3.217-3.338,2.501-5.294
				c-0.431-1.169-1.591-1.88-2.697-2.44c-7.731-3.811-16.771-3.677-25.362-3.017c-8.863,0.662-17.681,1.793-26.683,2.104
				c16.091-5.628,31.315-13.722,44.977-23.92c4.807-3.576,9.452-7.454,13.238-12.107c0.973-1.204,1.953-2.79,1.338-4.213
				c-0.318-0.737-1.003-1.255-1.727-1.602c-2.032-0.984-4.406-0.863-6.665-0.659c-11.993,1.061-23.83,3.892-35.017,8.367
				c4.084-2.674,7.788-5.92,10.999-9.593c0.655-0.757,1.332-1.616,1.369-2.623c0.038-1.159-0.813-2.207-1.854-2.715
				c-1.033-0.521-2.232-0.594-3.397-0.609c-9.923-0.092-19.361,3.971-28.937,7.846c11.895-5.134,23.286-11.422,33.96-18.743
				c8.131-5.579,15.966-11.889,21.616-19.964c0.961-1.365,1.882-2.872,1.923-4.532c0.049-1.672-1.113-3.479-3.28-3.251
				c7.519-6.471,13.832-14.339,18.504-23.088c0.554-1.029,1.073-2.278,0.512-3.29c-0.764-1.359-2.781-1.14-4.26-0.633
				c-4.589,1.564-8.788,4.056-12.89,6.647c-8.943,5.642-17.539,11.797-26.134,17.952c-6.823,4.88-13.644,9.771-20.692,14.611
				c12.173-8.863,23.474-18.933,33.68-30.021c3.046-3.324,6.057-6.814,7.785-10.98c0.167-0.393,0.323-0.839,0.233-1.265
				c-0.282-1.287-2.166-1.107-3.382-0.59c-6.015,2.581-11.767,5.792-17.153,8.317c5.848-3.632,11.617-7.432,17.272-11.361
				c6.032-4.203,12.196-8.857,15.241-15.537c0.609-1.334,1.057-2.97,0.247-4.189c5.944-2.762,10.312-8.678,10.991-15.814
				c2.597-2.155,5.171-4.423,6.956-7.286c1.775-2.861,2.683-6.44,1.134-10.544c3.421-2.523,6.36-5.684,8.622-9.277
				c0.74-1.177,1.43-2.44,1.605-3.824c0.178-1.373-0.242-2.903-1.818-4.297c4.881-4.818,8.629-10.788,10.868-17.276
				c0.35-1.019,0.646-2.189,0.122-3.132c-0.418-0.748-1.287-1.162-2.147-1.22c-0.849-0.06-1.701,0.174-2.5,0.451
				c-1.539,0.531-3.011,1.221-4.046,1.928C533.013,97.131,536.723,91.549,537.469,85.192z"/>
		</g>
	</g>
	<g>
		<g>
			<path style="fill:#292F44;" d="M272.305,394.578c3.948-4.098,5.787-9.683,7.034-15.187c0.187-0.806,0.346-1.619,0.504-2.432
				c-0.919-0.105-1.826-0.355-2.666-0.824c-1.961-1.07-3.219-3.005-3.955-4.956c-0.746-1.978-1.076-4.055-1.182-6.122
				c-0.06-1.342-0.019-2.684,0.133-4.025c-0.754,0.67-1.57,1.291-2.531,1.783c-0.821,0.388-1.874,0.752-3.014,0.363
				c-1.16-0.414-1.744-1.508-1.998-2.409c-0.48-1.882-0.228-3.699,0.271-5.411c0.041-0.132,0.097-0.26,0.142-0.391
				c-1.859,1.217-3.865,2.191-5.911,2.991c-3.557,1.342-7.306,2.216-11.22,2.151c-0.983-0.059-1.975-0.132-2.984-0.448
				c-0.978-0.305-2.092-0.764-2.825-1.891c-0.142-0.293-0.294-0.594-0.393-0.901c-0.053-0.314-0.096-0.635-0.124-0.951
				c0.031-0.294,0.068-0.59,0.112-0.884c0.04-0.297,0.164-0.53,0.246-0.797c0.374-1.036,0.96-1.857,1.55-2.654
				c2.028-2.478,4.396-4.471,6.856-6.302c-1.26-0.497-2.414-1.147-3.511-1.842c-1.673-1.081-3.216-2.305-4.69-3.595
				c-2.938-2.591-5.612-5.44-8.024-8.525c-1.197-1.552-2.333-3.157-3.306-4.918c-0.483-0.885-0.93-1.803-1.234-2.876
				c-0.136-0.547-0.267-1.132-0.154-1.891c0.019-0.18,0.104-0.401,0.169-0.593c0.114-0.204,0.206-0.418,0.385-0.59
				c0.324-0.385,0.762-0.569,1.14-0.684c0.767-0.19,1.352-0.087,1.91,0.005c0.559,0.1,1.055,0.264,1.547,0.433
				c0.974,0.348,1.877,0.771,2.764,1.216c0.049,0.025,0.094,0.053,0.143,0.078c-0.184-0.293-0.371-0.585-0.551-0.88
				c-1.159-1.908-2.226-3.853-3.249-5.82c-2.038-3.937-3.875-7.967-5.51-12.093c-0.29-0.736-0.562-1.481-0.835-2.225
				c-2.343-1.225-4.517-2.72-6.501-4.429c-2.123-1.834-4.037-3.909-5.654-6.203c-1.614-2.292-2.93-4.813-3.775-7.499
				c-0.848-2.682-1.202-5.53-0.967-8.334c0.026-0.285,0.274-0.503,0.561-0.486c0.293,0.018,0.516,0.269,0.499,0.562
				c-0.146,2.665,0.267,5.339,1.142,7.851c0.872,2.515,2.187,4.869,3.785,7.003c2.68,3.551,6.112,6.555,9.95,8.761
				c-0.142-0.433-0.296-0.86-0.43-1.297c-0.641-2.145-1.222-4.319-1.44-6.66c-0.041-0.592-0.072-1.188-0.016-1.823
				c0.058-0.63,0.151-1.296,0.508-2.004c0.325-0.712,1.171-1.405,2.018-1.526c0.831-0.144,1.541,0.008,2.152,0.2
				c0.782,0.278,1.489,0.621,2.154,1c-1.617-3.049-3.212-6.108-4.767-9.19c-2.229-4.441-4.418-8.906-6.432-13.464
				c-1.008-2.278-1.982-4.575-2.872-6.919c-0.865-2.361-1.746-4.695-2.147-7.34c-0.069-0.68-0.171-1.356,0.087-2.258
				c0.032-0.134,0.106-0.284,0.193-0.436c-2.278-2.982-4.675-5.871-7.106-8.761c-2.599-3.088-5.127-6.267-7.462-9.573
				c-0.166-0.236-0.115-0.563,0.118-0.735c0.236-0.174,0.569-0.124,0.743,0.112c2.385,3.232,4.945,6.317,7.6,9.342
				c2.495,2.844,4.988,5.723,7.361,8.701c0.191-0.032,0.367-0.023,0.549-0.03c0.216,0.036,0.476,0.061,0.652,0.131
				c0.778,0.244,1.341,0.61,1.895,0.98c0.553,0.372,1.06,0.77,1.55,1.181c1.122,0.941,2.169,1.935,3.185,2.951
				c-0.365-0.828-0.796-1.648-1.264-2.455c-1.028-1.762-2.19-3.476-3.379-5.173l-7.267-10.177c-1.195-1.718-2.363-3.462-3.456-5.264
				c-1.08-1.809-2.111-3.667-2.845-5.705c-0.36-1.018-0.646-2.095-0.657-3.253c0.006-0.577,0.072-1.177,0.3-1.752
				c0.227-0.573,0.607-1.092,1.07-1.486c0.256-0.214,0.528-0.387,0.808-0.536c-8.65-6.818-17.668-13.172-27.003-19.029
				c-1.066-0.669-2.365-0.833-3.516-0.484c-0.434,0.576-0.743,1.22-0.966,1.885c-0.178,0.775-0.285,1.578-0.136,2.385
				c0.207,1.62,1.021,3.163,1.953,4.588c0.948,1.43,2.068,2.764,3.244,4.05c2.366,2.567,4.965,4.943,7.521,7.385
				c2.533,2.465,5.159,4.888,7.158,8.007c0.124,0.196,0.151,0.453,0.046,0.68c-0.165,0.354-0.585,0.507-0.939,0.342l-0.023-0.011
				c-5.282-2.46-10.632-4.832-16.148-6.566c-1.379-0.421-2.769-0.802-4.162-1.073c-1.38-0.253-2.82-0.458-4.076-0.265
				c-0.619,0.094-1.168,0.311-1.422,0.633c-0.25,0.31-0.339,0.804-0.221,1.411c0.221,1.205,0.935,2.468,1.694,3.634
				c1.571,2.348,3.524,4.498,5.561,6.536c2.052,2.033,4.222,3.956,6.469,5.782c4.507,3.628,9.326,6.925,14.486,9.457
				c0.418,0.205,0.634,0.693,0.485,1.149c-0.163,0.499-0.7,0.772-1.199,0.609c-3.853-1.254-7.737-2.447-11.658-3.289
				c-1.949-0.408-3.951-0.761-5.815-0.72c-0.459,0.015-0.902,0.071-1.264,0.175c-0.364,0.106-0.584,0.269-0.58,0.34
				c-0.021,0.018-0.027,0.08-0.025,0.159c0.003,0.045,0.017,0.089,0.013,0.135c0.019,0.119,0.055,0.261,0.118,0.416
				c0.142,0.356,0.378,0.742,0.644,1.115c1.101,1.505,2.598,2.872,4.113,4.154c1.531,1.283,3.144,2.488,4.796,3.638
				c3.306,2.299,6.771,4.392,10.339,6.255c0.399,0.21,0.628,0.669,0.525,1.13c-0.123,0.551-0.67,0.898-1.222,0.775
				c-4.121-0.908-8.261-1.756-12.411-2.321c-2.071-0.278-4.155-0.493-6.186-0.487c-1.004,0.013-2.023,0.075-2.879,0.309
				c-0.423,0.112-0.798,0.286-0.988,0.46c-0.191,0.178-0.21,0.262-0.208,0.55c0.053,0.604,0.583,1.498,1.172,2.253
				c0.604,0.778,1.303,1.527,2.033,2.252c1.469,1.448,3.063,2.811,4.686,4.14c3.259,2.651,6.657,5.168,10.072,7.664
				c0.344,0.254,0.526,0.702,0.419,1.144c-0.142,0.589-0.735,0.952-1.325,0.81c-3.735-0.883-7.536-1.595-11.273-1.697
				c-1.837-0.039-3.763,0.145-5.096,0.871c-0.639,0.384-0.977,0.831-1.035,1.437c-0.066,0.619,0.188,1.409,0.57,2.156
				c0.812,1.512,2.065,2.922,3.436,4.179c1.375,1.266,2.888,2.409,4.467,3.455c3.158,2.101,6.588,3.811,10.139,5.173
				c0.591,0.227,0.896,0.887,0.68,1.486c-0.219,0.606-0.887,0.92-1.493,0.701c-4.741-1.712-9.521-3.317-14.353-4.654
				c-2.415-0.658-4.848-1.259-7.278-1.666c-1.213-0.203-2.431-0.356-3.602-0.386c-0.581-0.012-1.16,0.004-1.66,0.09
				c-0.447,0.058-0.837,0.26-0.851,0.294c0.001,0.005,0.001,0.016,0.006,0.065c0.004,0.097,0.085,0.296,0.186,0.492
				c0.221,0.409,0.569,0.855,0.95,1.279c0.778,0.853,1.702,1.655,2.659,2.417c1.923,1.525,4.008,2.907,6.129,4.226
				c4.257,2.629,8.708,4.985,13.221,7.208c0.488,0.243,0.783,0.788,0.681,1.351c-0.124,0.683-0.778,1.135-1.461,1.011
				c-3.888-0.692-7.803-1.284-11.686-1.501c-1.926-0.087-3.89-0.11-5.645,0.221c-0.85,0.15-1.711,0.478-1.993,0.807
				c-0.128,0.16-0.158,0.205-0.148,0.409c0.01,0.198,0.116,0.52,0.305,0.849c0.378,0.671,0.994,1.359,1.658,1.993
				c0.668,0.639,1.409,1.239,2.173,1.814c1.535,1.148,3.186,2.184,4.875,3.159c3.389,1.937,6.959,3.602,10.613,5.024
				c0.493,0.193,0.841,0.68,0.827,1.239c-0.018,0.715-0.611,1.28-1.326,1.262c-4.024-0.1-8.069-0.024-11.947,0.572l-1.424,0.283
				c-0.471,0.101-0.912,0.248-1.371,0.368c-0.851,0.3-1.746,0.642-2.264,1.119c-0.277,0.224-0.425,0.46-0.501,0.646
				c-0.043,0.101-0.012,0.197-0.051,0.299c0.053,0.125,0.025,0.234,0.09,0.38c0.203,0.577,0.785,1.276,1.48,1.851
				c1.371,1.2,3.132,2.14,4.901,2.964c1.789,0.814,3.653,1.507,5.56,2.074c3.811,1.148,7.759,1.88,11.73,2.235
				c0.321,0.03,0.634,0.182,0.855,0.45c0.441,0.534,0.367,1.325-0.167,1.766l-0.012,0.01c-1.778,1.47-3.548,2.96-5.132,4.618
				c-1.604,1.635-3.106,3.371-4.337,5.256c-1.229,1.871-2.266,3.893-2.694,5.961c-0.196,1.029-0.226,2.053-0.027,2.973
				c0.199,0.924,0.704,1.669,1.418,2.188c0.718,0.521,1.663,0.794,2.666,0.893c1.02,0.046,2.084-0.028,3.145-0.288
				c2.126-0.472,4.204-1.41,6.169-2.533c3.95-2.255,7.479-5.31,10.744-8.578l0.006-0.006c0.421-0.422,1.1-0.477,1.585-0.104
				c0.528,0.405,0.627,1.161,0.223,1.689c-3.23,4.21-6.329,8.558-8.719,13.202c-1.151,2.306-2.197,4.768-2.372,7.112
				c-0.088,1.167,0.166,2.2,0.794,2.803c0.622,0.627,1.742,0.905,2.924,0.908c2.398,0.005,4.94-0.772,7.342-1.711
				c2.418-0.96,4.763-2.163,7.034-3.492c4.538-2.674,8.795-5.861,12.714-9.405c0.32-0.288,0.801-0.372,1.209-0.167
				c0.532,0.267,0.747,0.914,0.481,1.446c-1.9,3.793-3.724,7.635-5.174,11.57c-0.701,1.96-1.347,3.979-1.544,5.918
				c-0.091,0.934,0.016,1.933,0.37,2.268c0.246,0.354,1.105,0.408,2.021,0.169c1.842-0.476,3.712-1.522,5.492-2.587
				c1.789-1.089,3.531-2.289,5.248-3.526c3.433-2.483,6.77-5.127,10.081-7.806c0.251-0.202,0.602-0.274,0.925-0.154
				c0.49,0.181,0.74,0.725,0.559,1.215c-1.833,4.959-3.558,9.972-4.788,15.067c-0.572,2.531-1.102,5.159-0.921,7.599
				c0.054,0.596,0.167,1.182,0.389,1.628c0.232,0.442,0.5,0.718,0.908,0.81c0.85,0.217,2.11-0.272,3.18-0.859
				c2.205-1.228,4.226-2.949,6.161-4.706c1.933-1.778,3.776-3.668,5.568-5.607c3.577-3.887,6.951-7.975,10.175-12.173l0.009-0.012
				c0.134-0.172,0.348-0.275,0.582-0.258c0.371,0.028,0.648,0.351,0.62,0.722c-0.201,2.659-0.612,5.245-0.939,7.835
				c-0.331,2.586-0.613,5.172-0.652,7.75c-0.026,2.562,0.159,5.175,1.112,7.481c0.477,1.143,1.166,2.183,2.08,2.982
				c0.482,0.428,1.03,0.777,1.615,1.059C271.339,395.376,271.87,395.03,272.305,394.578z M196.326,301.859
				c0.137-0.266,0.465-0.371,0.731-0.234l0.01,0.005c0.902,0.465,1.742,0.956,2.606,1.476c0.869,0.505,1.768,0.995,2.633,1.592
				c0.186,0.128,0.278,0.366,0.211,0.595c-0.084,0.285-0.383,0.448-0.668,0.365c-1.008-0.296-1.983-0.7-2.927-1.207
				c-0.948-0.491-1.86-1.131-2.542-2.009C196.255,302.28,196.227,302.053,196.326,301.859z M203.936,246.036
				c-0.135,0.264-0.458,0.37-0.722,0.235c-2.268-1.155-4.169-2.985-5.611-5.089c-1.435-2.11-2.457-4.531-2.772-7.05
				c-0.027-0.233,0.101-0.469,0.328-0.562c0.274-0.112,0.587,0.018,0.699,0.292c0.929,2.215,2.004,4.296,3.349,6.211
				c1.338,1.921,2.905,3.646,4.623,5.332C203.993,245.565,204.045,245.822,203.936,246.036z M199.269,282.399
				c1.1,1.588,2.492,2.965,4.118,4.102l0.005,0.003c0.198,0.139,0.283,0.4,0.19,0.635c-0.109,0.275-0.419,0.409-0.694,0.3
				c-2.015-0.798-3.767-2.252-5.052-4.022c-1.288-1.762-2.139-3.909-2.134-6.095c0.001-0.224,0.142-0.434,0.367-0.509
				c0.282-0.094,0.586,0.057,0.681,0.339l0.003,0.008C197.385,279.05,198.171,280.804,199.269,282.399z M212.522,258.691
				c-1.474-1.824-2.718-3.85-3.54-6.043c-0.085-0.228-0.005-0.495,0.207-0.634c0.247-0.162,0.578-0.094,0.741,0.153
				c1.249,1.884,2.521,3.708,3.939,5.424c1.409,1.724,2.942,3.329,4.53,4.941c0.169,0.172,0.208,0.444,0.076,0.658
				c-0.155,0.252-0.485,0.33-0.736,0.175C215.744,262.134,214.005,260.507,212.522,258.691z M215.205,320.866
				c-1.222,0.402-2.523,0.551-3.819,0.525c-1.297-0.028-2.596-0.246-3.838-0.639c-1.25-0.373-2.436-0.954-3.516-1.678
				c-1.066-0.745-2.037-1.639-2.748-2.727c-0.108-0.166-0.122-0.385-0.017-0.569c0.15-0.261,0.483-0.352,0.744-0.202l0.008,0.005
				c1.052,0.602,2.045,1.186,3.082,1.682c1.022,0.517,2.077,0.943,3.149,1.324c1.08,0.361,2.186,0.645,3.32,0.847
				c1.135,0.204,2.291,0.311,3.489,0.381l0.008,0c0.214,0.013,0.409,0.154,0.48,0.371
				C215.643,320.468,215.488,320.773,215.205,320.866z M222.948,343.051c-1.286-0.002-2.568-0.269-3.79-0.701
				c-1.223-0.434-2.387-1.048-3.443-1.812c-1.069-0.747-2.013-1.671-2.811-2.697c-0.778-1.042-1.419-2.195-1.753-3.451
				c-0.05-0.191,0.005-0.404,0.163-0.546c0.224-0.201,0.569-0.183,0.77,0.042l0.006,0.007c0.81,0.902,1.569,1.769,2.398,2.565
				c0.808,0.812,1.676,1.547,2.575,2.246c0.912,0.682,1.873,1.298,2.886,1.846c1.013,0.55,2.078,1.014,3.193,1.457l0.008,0.003
				c0.199,0.08,0.34,0.275,0.34,0.503C223.488,342.81,223.246,343.051,222.948,343.051z M234.192,354.135
				c-0.02,0.295-0.276,0.518-0.571,0.497c-1.822-0.125-3.596-0.833-5.101-1.885c-0.752-0.531-1.441-1.154-2.028-1.862
				c-0.585-0.709-1.09-1.484-1.434-2.332c-0.086-0.213-0.028-0.466,0.16-0.619c0.23-0.187,0.568-0.151,0.755,0.079l0.005,0.006
				c0.524,0.647,1.055,1.266,1.641,1.828c0.584,0.562,1.2,1.086,1.857,1.555c1.312,0.947,2.774,1.658,4.348,2.186l0.007,0.002
				C234.054,353.667,234.209,353.887,234.192,354.135z"/>
		</g>
		<g>
			<path style="fill:#292F44;" d="M280.671,375.912c-1.04-0.041-2.048-0.271-2.933-0.787c-1.613-0.909-2.699-2.581-3.347-4.383
				c-0.655-1.816-0.942-3.781-1.011-5.74c-0.059-1.958,0.09-3.951,0.538-5.82c0.093-0.386-0.145-0.774-0.531-0.867
				c-0.255-0.061-0.511,0.022-0.682,0.196l-0.007,0.007c-1.13,1.16-2.367,2.276-3.709,2.929c-0.661,0.315-1.363,0.462-1.829,0.272
				c-0.466-0.159-0.815-0.699-0.998-1.377c-0.343-1.385-0.133-3.02,0.327-4.493c0.47-1.482,1.236-2.893,2.303-3.934l0-0.001
				c0.006-0.007,0.013-0.012,0.02-0.019c0.33-0.336,0.326-0.877-0.011-1.207c-0.333-0.327-0.871-0.322-1.202,0.005
				c-0.007,0.007-0.011,0.014-0.018,0.021l-0.001-0.001c-2.48,2.516-5.726,4.282-9.086,5.556c-3.371,1.248-6.998,2.034-10.509,1.94
				c-0.861-0.059-1.736-0.137-2.497-0.391c-0.762-0.228-1.454-0.604-1.731-1.08c-0.039-0.132-0.108-0.245-0.158-0.373
				c-0.006-0.146-0.024-0.285-0.052-0.428c0.032-0.165,0.057-0.328,0.075-0.494c0.012-0.165,0.121-0.349,0.173-0.524
				c0.255-0.713,0.756-1.426,1.273-2.108c2.234-2.697,5.183-4.954,8.16-7.06c0.469-0.332,0.58-0.98,0.248-1.449
				c-0.16-0.226-0.394-0.369-0.647-0.419l-0.016-0.003c-1.637-0.32-3.297-1.202-4.838-2.199c-1.551-1.008-3.024-2.179-4.435-3.422
				c-2.816-2.496-5.413-5.28-7.723-8.252c-1.144-1.49-2.226-3.036-3.105-4.64c-0.437-0.798-0.82-1.626-1.036-2.405
				c-0.102-0.378-0.144-0.76-0.108-0.955c0.017-0.099,0.034-0.117,0.033-0.105c-0.022,0,0.012-0.001,0.082-0.033
				c0.17-0.055,0.566-0.033,0.945,0.044c0.387,0.068,0.808,0.205,1.222,0.349c0.834,0.3,1.673,0.693,2.501,1.112
				c1.656,0.852,3.28,1.829,4.876,2.853c0.513,0.329,1.196,0.18,1.525-0.333c0.307-0.478,0.198-1.104-0.233-1.453l-0.031-0.025
				c-0.618-0.497-1.307-1.406-1.902-2.249c-0.609-0.869-1.187-1.779-1.745-2.703c-1.118-1.851-2.16-3.763-3.159-5.697
				c-1.99-3.874-3.831-7.837-5.439-11.879c-0.802-2.021-1.546-4.063-2.185-6.124c-0.625-2.056-1.178-4.156-1.371-6.196
				c-0.087-0.988-0.049-2.056,0.246-2.646c0.159-0.277,0.258-0.339,0.502-0.397c0.252-0.047,0.661-0.008,1.09,0.135
				c1.769,0.602,3.553,1.957,5.208,3.274l0.007,0.006c0.464,0.369,1.138,0.292,1.507-0.172c0.276-0.347,0.302-0.814,0.103-1.181
				c-4.725-8.678-9.265-17.499-13.366-26.475c-1.018-2.246-2-4.508-2.891-6.792c-0.864-2.273-1.742-4.621-2.098-6.885
				c-0.08-0.54-0.1-1.135-0.004-1.429c0.014-0.044,0.023-0.072,0.029-0.089c0.015,0.001,0.032,0.003,0.042-0.003
				c0.086,0.03,0.143,0.008,0.257,0.055c0.412,0.117,0.921,0.409,1.392,0.726c0.479,0.315,0.953,0.679,1.415,1.06
				c1.856,1.527,3.594,3.281,5.298,5.051l0.029,0.03c0.333,0.346,0.883,0.356,1.229,0.023c0.164-0.158,0.253-0.367,0.265-0.577
				c0.077-1.355-0.348-2.425-0.761-3.445c-0.439-1.01-0.955-1.952-1.497-2.869c-1.09-1.829-2.286-3.558-3.505-5.263l-7.428-10.061
				c-2.384-3.373-4.828-6.799-6.306-10.555c-0.351-0.936-0.61-1.903-0.632-2.835c-0.03-0.934,0.255-1.785,0.918-2.348
				c0.437-0.385,1.011-0.639,1.629-0.816c0.363,0.145,0.717,0.329,1.042,0.514c2.49,1.426,4.932,2.929,8.592,5.296
				c10.604,6.882,18.726,17.498,22.575,29.538c2.383,7.398,3.159,15.206,4.095,22.929c1.641,13.648,3.791,27.361,8.602,40.243
				c3.651,9.782,8.95,19.109,17.051,27.766c1.843,1.974,4.635,3.67,7.07,5.768c0.919,0.791,1.839,1.582,2.611,2.505
				c3.204,3.759,3.676,9.147,3.171,14.069c-0.365,3.431-1.12,6.811-2.273,10.065C281.625,374.561,281.265,375.371,280.671,375.912z"
				/>
		</g>
		<g>
			<path style="fill:#292F44;" d="M62.531,85.192c-0.085-0.68-0.106-1.456,0.368-1.953c0.563-0.609,1.552-0.509,2.352-0.286
				c1.637,0.475,3.175,1.321,6.152,3.066c-2.313-5.255-3.787-10.886-4.352-16.609c-0.384-3.947-0.183-8.357,2.496-11.278
				c0.523-0.574,1.231-1.098,1.986-0.972c0.89,0.155,1.372,1.114,1.718,1.947l14.364,34.953c3.761,9.154,7.539,18.334,12.341,26.98
				c9.392,16.91,22.567,31.48,37.103,44.229c12.261,10.759,25.52,20.299,38.915,29.631c-0.312,0.514-0.568,1.069-0.761,1.646
				c-0.234,0.932-0.354,1.915-0.193,2.855c0.237,1.903,1.124,3.572,2.093,5.091c0.99,1.52,2.136,2.905,3.328,4.232
				c2.397,2.644,4.992,5.055,7.515,7.509c1.839,1.812,3.722,3.628,5.303,5.604c-4.493-2.096-9.051-4.073-13.813-5.616
				c-1.414-0.445-2.846-0.852-4.322-1.152c-1.482-0.275-2.986-0.539-4.638-0.314c-0.802,0.128-1.751,0.381-2.455,1.197
				c-0.154,0.186-0.272,0.386-0.368,0.591c-6.107-3.279-11.748-7.389-16.971-11.991c-5.501-4.827-10.637-10.091-15.922-15.213
				c-0.21-0.205-0.547-0.2-0.751,0.01c-0.203,0.209-0.199,0.542,0.006,0.747c5.207,5.178,10.28,10.516,15.772,15.464
				c5.349,4.837,11.198,9.205,17.574,12.675c0.011,0.163,0.029,0.323,0.057,0.471c0.314,1.689,1.111,3.016,1.915,4.302
				c0.606,0.921,1.266,1.789,1.946,2.637c-3.018-1.777-5.95-3.707-8.794-5.768c-4.167-3.016-8.171-6.268-12.152-9.556
				c-0.226-0.187-0.561-0.155-0.748,0.071c-0.185,0.224-0.155,0.555,0.065,0.743c3.934,3.354,7.904,6.684,12.062,9.794
				c4.014,3.006,8.221,5.784,12.641,8.198c0.238,0.248,0.471,0.5,0.712,0.745c2.083,2.107,4.286,4.082,6.577,5.948
				c2.435,1.97,4.956,3.84,7.582,5.56c-1.289-0.348-2.584-0.679-3.897-0.965c-2.031-0.424-4.071-0.815-6.288-0.779
				c-0.558,0.02-1.135,0.075-1.753,0.25c-0.497,0.156-1.146,0.436-1.588,1.066c-5.646-2.691-11.043-5.999-16.01-9.849
				c-0.23-0.182-0.564-0.142-0.746,0.088c-0.177,0.224-0.14,0.549,0.073,0.734c5.012,4.257,10.493,7.948,16.346,11.018
				c0.052,0.215,0.114,0.419,0.179,0.596c0.237,0.591,0.545,1.075,0.865,1.533c1.309,1.79,2.86,3.182,4.44,4.536
				c1.588,1.339,3.24,2.579,4.928,3.762c1.582,1.107,3.198,2.16,4.841,3.17c-2.045-0.396-4.101-0.752-6.176-1.042
				c-2.127-0.291-4.27-0.524-6.481-0.525c-1.11,0.017-2.23,0.06-3.425,0.375c-0.592,0.167-1.232,0.392-1.842,0.921
				c-0.64,0.498-1.008,1.53-0.908,2.292c0.198,1.528,0.936,2.459,1.596,3.383c0.456,0.591,0.942,1.133,1.437,1.66
				c-4.163-0.887-8.269-2.104-12.282-3.575c-5.06-1.864-9.986-4.115-14.712-6.731c-0.257-0.143-0.58-0.051-0.723,0.206
				c-0.14,0.253-0.052,0.571,0.196,0.717c4.712,2.757,9.636,5.153,14.72,7.166c4.918,1.937,9.995,3.512,15.211,4.552
				c1.047,0.952,2.11,1.878,3.193,2.771c2.008,1.643,4.056,3.221,6.118,4.773c-2.234-0.397-4.502-0.681-6.823-0.753
				c-2.015-0.012-4.13,0.045-6.26,1.158c-0.516,0.311-1.042,0.698-1.435,1.266c-0.409,0.536-0.65,1.23-0.714,1.885
				c-0.051,0.581,0.016,1.114,0.133,1.619c-9.109-2.777-18.425-4.664-27.757-6.229c-0.289-0.049-0.563,0.147-0.612,0.436
				c-0.048,0.283,0.14,0.552,0.419,0.609c9.843,1.989,19.628,4.33,29.04,7.68c0.976,1.594,2.187,2.924,3.478,4.126
				c1.048,0.971,2.156,1.857,3.3,2.686c-0.56-0.164-1.117-0.336-1.68-0.493c-2.466-0.679-4.952-1.304-7.514-1.741
				c-1.282-0.217-2.581-0.39-3.94-0.43c-0.683-0.014-1.376-0.005-2.124,0.117c-0.379,0.072-0.762,0.148-1.187,0.334
				c-0.408,0.174-0.894,0.442-1.27,0.987c-0.384,0.539-0.469,1.251-0.385,1.759c0.074,0.535,0.258,0.923,0.441,1.288
				c0.382,0.706,0.83,1.256,1.29,1.775c0.854,0.94,1.768,1.742,2.703,2.502c-5.83-1.869-11.702-3.613-17.619-5.191
				c-8.093-2.161-16.266-4.015-24.485-5.603c-0.288-0.056-0.567,0.133-0.623,0.421c-0.055,0.286,0.13,0.563,0.415,0.621
				c8.18,1.675,16.303,3.612,24.34,5.854c7.467,2.08,14.856,4.429,22.183,6.963c0.787,0.525,1.58,1.04,2.379,1.54
				c2.173,1.351,4.384,2.625,6.621,3.844c-1.466-0.175-2.939-0.326-4.427-0.414c-2.044-0.092-4.097-0.148-6.267,0.246
				c-0.542,0.098-1.098,0.245-1.667,0.464c-0.145,0.058-0.293,0.122-0.442,0.193c-4.925-2.3-10.098-4.38-15.572-5.079
				c-0.291-0.037-0.558,0.169-0.595,0.46c-0.036,0.278,0.153,0.534,0.424,0.589c4.958,0.992,9.559,3.148,14.01,5.581
				c-0.281,0.516-0.444,1.129-0.387,1.672c0.054,0.799,0.33,1.426,0.624,1.961c0.607,1.066,1.355,1.861,2.121,2.607
				c0.77,0.74,1.579,1.397,2.403,2.021c1.653,1.242,3.377,2.334,5.141,3.344c1.713,0.975,3.46,1.875,5.235,2.713
				c-2.057,0.088-4.122,0.266-6.197,0.588l-1.573,0.316c-0.525,0.114-1.053,0.285-1.579,0.428c-1.051,0.384-2.127,0.741-3.152,1.623
				c-0.277,0.233-0.546,0.524-0.78,0.863c-12.772-1.666-25.459-4.108-37.958-7.324c-0.284-0.073-0.574,0.098-0.647,0.382
				c-0.072,0.278,0.092,0.563,0.366,0.643c12.335,3.6,24.899,6.446,37.604,8.534c0.052,0.343,0.097,0.712,0.216,1.007
				c0.513,1.344,1.373,2.196,2.217,2.929c1.713,1.478,3.605,2.455,5.518,3.349c1.738,0.787,3.518,1.44,5.322,1.998
				c-10.661,3.007-22.091,3.354-32.932,0.909c-0.286-0.065-0.571,0.115-0.635,0.401c-0.064,0.284,0.113,0.566,0.395,0.634
				c11.759,2.803,24.271,2.377,35.862-1.182c2.373,0.613,4.777,1.089,7.204,1.412c-1.072,0.934-2.122,1.897-3.11,2.933
				c-1.686,1.726-3.28,3.57-4.624,5.631c-1.336,2.055-2.515,4.291-3.046,6.848c-0.241,1.282-0.308,2.65,0.001,4.033
				c0.294,1.383,1.165,2.743,2.362,3.593c1.198,0.865,2.597,1.229,3.927,1.353c1.33,0.067,2.634-0.047,3.863-0.345
				c2.475-0.558,4.732-1.598,6.845-2.807c1.249-0.717,2.442-1.507,3.597-2.341c-1.103,1.73-2.142,3.509-3.09,5.357
				c-1.202,2.469-2.374,5.027-2.606,8.055c-0.048,0.755-0.004,1.556,0.22,2.368c0.043,0.158,0.101,0.316,0.16,0.474
				c-6.681,7.544-14.34,14.226-22.772,19.818c-0.245,0.162-0.311,0.492-0.149,0.737c0.159,0.24,0.482,0.307,0.724,0.157
				c8.524-5.273,16.38-11.675,23.317-18.963c0.01,0.009,0.017,0.021,0.027,0.03c1.344,1.267,3.07,1.53,4.524,1.544
				c2.174-0.019,4.18-0.498,6.101-1.143c-4.53,11.601-10.362,22.721-17.382,33.036c-0.166,0.242-0.105,0.573,0.137,0.739
				c0.239,0.164,0.567,0.104,0.735-0.132c7.54-10.687,13.812-22.268,18.674-34.438c2.537-1.027,4.947-2.282,7.275-3.659
				c3.209-1.914,6.249-4.078,9.143-6.42c-1.089,2.361-2.12,4.756-3.016,7.227c-0.716,2.056-1.398,4.136-1.628,6.454
				c-0.04,0.588-0.055,1.191,0.039,1.836c0.096,0.634,0.316,1.369,0.881,1.988c0.561,0.639,1.415,0.91,2.096,0.951
				c0.701,0.049,1.321-0.058,1.904-0.199c2.298-0.62,4.18-1.736,6.05-2.854c1.852-1.141,3.621-2.374,5.36-3.64
				c2.566-1.877,5.052-3.841,7.517-5.825c-1.393,3.982-2.677,8.011-3.632,12.161c-0.518,2.445-1.024,4.911-0.915,7.55
				c-6.308,9.404-14.017,17.86-22.834,24.999c-0.228,0.185-0.263,0.519-0.079,0.747c0.183,0.226,0.516,0.261,0.744,0.081
				c8.574-6.764,16.163-14.788,22.493-23.71c0.075,0.238,0.162,0.477,0.281,0.716c0.348,0.734,1.107,1.501,2.021,1.684
				c0.892,0.205,1.703,0.048,2.41-0.171c0.712-0.227,1.354-0.54,1.968-0.878c1.184-0.676,2.27-1.448,3.304-2.271
				c-3.463,7.766-7.19,15.423-11.564,22.698c-0.153,0.25-0.074,0.577,0.177,0.73c0.249,0.152,0.576,0.071,0.73-0.176
				c4.959-8.085,9.104-16.611,12.973-25.237c0.272-0.246,0.548-0.49,0.817-0.738c1.96-1.837,3.81-3.771,5.605-5.749
				c3.061-3.388,5.951-6.914,8.731-10.523c-0.191,1.814-0.442,3.639-0.657,5.47c-0.309,2.608-0.573,5.238-0.589,7.897
				c0.002,2.645,0.199,5.381,1.273,7.933c0.539,1.263,1.338,2.456,2.407,3.372c0.233,0.202,0.481,0.383,0.735,0.555
				c-1.007,7.566-2.468,15.058-4.383,22.454c-0.779,3.028-1.661,6.079-3.345,8.71c-0.375,0.594-0.848,1.189-1.531,1.339
				c-1.466,0.31-2.349-1.581-2.592-3.055c-0.775-4.67-0.92-9.446-0.44-14.145c-1.333,4.009-2.667,8.017-4.008,12.013
				c-0.443,1.329-0.907,2.708-1.87,3.722c-0.965,1.024-2.569,1.576-3.798,0.915c-1.521-0.82-1.717-2.881-1.636-4.602
				c0.184-3.654,0.796-7.282,0.848-9.899c-4.943,4.594-9.887,9.199-14.84,13.792c-0.88,0.825-1.782,1.655-2.881,2.129
				c-1.101,0.485-2.461,0.546-3.445-0.14c-1.014-0.702-1.415-2.047-1.319-3.275c0.106-1.226,0.641-2.373,1.18-3.487
				c3.094-6.439,6.554-12.703,10.415-18.764c-7.683,8.067-15.382,16.153-24.042,23.135c-2.148,1.741-4.416,3.435-7.072,4.189
				c-1.248,0.356-2.662,0.471-3.785-0.179c-1.425-0.811-1.99-2.667-1.754-4.301c0.223-1.625,1.084-3.084,1.926-4.503
				c3.186-5.377,6.371-10.755,9.156-17.737c-6.297,6.383-12.594,12.766-19.21,18.811c-4.599,4.2-9.564,8.333-15.558,9.981
				c-2.295,0.635-5.094,0.729-6.652-1.054c-1.337-1.541-1.201-3.837-0.792-5.825c3.195-15.833,17.268-26.962,24.471-41.408
				c-8.966,9.98-18.18,20.157-30.034,26.423c-1.846,0.979-3.814,1.868-5.911,1.925c-2.085,0.049-4.323-0.922-5.206-2.813
				c-0.561-1.204-0.505-2.604-0.345-3.928c0.937-7.383,5.072-13.971,9.736-19.765c4.665-5.804,9.978-11.124,13.116-17.771
				c-11.721,1.255-23.784-0.864-34.376-6.049c-2.312-1.139-4.892-2.964-4.717-5.544c0.176-2.743,3.292-4.182,5.95-4.892
				c3.693-0.981,7.455-1.676,11.254-2.081c-4.486-1.336-8.693-3.58-12.301-6.556c-1.887-1.56-3.752-3.734-3.711-6.505
				c-10.986-1.924-21.43-6.883-29.849-14.185c-1.57-1.362-3.217-3.338-2.501-5.294c0.431-1.169,1.591-1.88,2.697-2.44
				c7.731-3.811,16.77-3.677,25.362-3.017c8.863,0.662,17.681,1.793,26.683,2.104c-16.091-5.628-31.315-13.722-44.977-23.92
				c-4.807-3.576-9.451-7.454-13.238-12.107c-0.973-1.204-1.953-2.79-1.338-4.213c0.318-0.737,1.003-1.255,1.728-1.602
				c2.032-0.984,4.406-0.863,6.665-0.659c11.993,1.061,23.83,3.892,35.017,8.367c-4.084-2.674-7.787-5.92-10.999-9.593
				c-0.655-0.757-1.332-1.616-1.369-2.623c-0.038-1.159,0.813-2.207,1.854-2.715c1.033-0.521,2.232-0.594,3.397-0.609
				c9.923-0.092,19.361,3.971,28.937,7.846c-11.895-5.134-23.286-11.422-33.96-18.743c-8.131-5.579-15.966-11.889-21.616-19.964
				c-0.961-1.365-1.882-2.872-1.923-4.532c-0.049-1.672,1.113-3.479,3.28-3.251c-7.519-6.471-13.832-14.339-18.504-23.088
				c-0.554-1.029-1.073-2.278-0.512-3.29c0.764-1.359,2.781-1.14,4.26-0.633c4.59,1.564,8.788,4.056,12.89,6.647
				c8.943,5.642,17.539,11.797,26.134,17.952c6.823,4.88,13.644,9.771,20.692,14.611c-12.173-8.863-23.473-18.933-33.679-30.021
				c-3.046-3.324-6.057-6.814-7.785-10.98c-0.167-0.393-0.323-0.839-0.233-1.265c0.282-1.287,2.166-1.107,3.382-0.59
				c6.015,2.581,11.767,5.792,17.153,8.317c-5.848-3.632-11.617-7.432-17.272-11.361c-6.032-4.203-12.196-8.857-15.241-15.537
				c-0.609-1.334-1.057-2.97-0.247-4.189c-5.944-2.762-10.312-8.678-10.991-15.814c-2.597-2.155-5.171-4.423-6.957-7.286
				c-1.775-2.861-2.683-6.44-1.134-10.544c-3.421-2.523-6.36-5.684-8.622-9.277c-0.74-1.177-1.43-2.44-1.605-3.824
				c-0.178-1.373,0.242-2.903,1.818-4.297c-4.881-4.818-8.629-10.788-10.868-17.276c-0.35-1.019-0.647-2.189-0.122-3.132
				c0.418-0.748,1.287-1.162,2.147-1.22c0.849-0.06,1.701,0.174,2.5,0.451c1.539,0.531,3.011,1.221,4.046,1.928
				C66.987,97.131,63.277,91.549,62.531,85.192z"/>
		</g>
	</g>
</g>
</svg>
