<?xml version="1.0"?>
<svg width="600" height="500" xmlns="http://www.w3.org/2000/svg" xmlns:svg="http://www.w3.org/2000/svg" enable-background="new 0 0 600 500" version="1.1" xml:space="preserve">
 <g class="layer">
  <title>Layer 1</title>
  <g id="BACKGROUND" transform="matrix(1 0 0 1 0 0)">
   <rect fill="#daad86" height="500" id="svg_1" width="600"/>
  </g>
  <g id="OBJECTS">
   <path d="m144.53,315.06c13.93,101.84 86.8,167.15 217.85,113.26s129.53,-300.93 -0.15,-338.22c-129.67,-37.29 -241.85,48.35 -217.7,224.96z" fill="#fbeec1" id="svg_2" transform="matrix(1 0 0 1 0 0)"/>
   <g id="svg_3">
    <g id="svg_4">
     <path d="m329.24,395.59c0.58,-0.28 1.13,-0.63 1.61,-1.06c0.92,-0.8 1.61,-1.84 2.08,-2.98c0.95,-2.31 1.14,-4.92 1.11,-7.48c-0.03,-2.58 -0.32,-5.17 -0.65,-7.75c-0.32,-2.59 -0.74,-5.18 -0.94,-7.84c-0.03,-0.37 0.25,-0.69 0.62,-0.72c0.24,-0.02 0.45,0.09 0.59,0.26l0,0.01c3.23,4.2 6.6,8.29 10.18,12.17c1.79,1.94 3.63,3.83 5.57,5.61c1.93,1.76 3.95,3.48 6.16,4.71c1.07,0.58 2.33,1.07 3.18,0.86c0.41,-0.1 0.67,-0.37 0.91,-0.81c0.22,-0.45 0.33,-1.04 0.39,-1.63c0.18,-2.44 -0.35,-5.07 -0.93,-7.6c-1.23,-5.1 -2.95,-10.11 -4.78,-15.07c-0.18,-0.49 0.07,-1.03 0.56,-1.21c0.32,-0.12 0.67,-0.05 0.92,0.15c3.31,2.68 6.65,5.32 10.08,7.81c1.72,1.23 3.46,2.43 5.25,3.52c1.78,1.07 3.65,2.11 5.49,2.59c0.92,0.24 1.78,0.18 2.02,-0.17c0.36,-0.33 0.46,-1.33 0.37,-2.27c-0.19,-1.94 -0.84,-3.95 -1.54,-5.91c-1.45,-3.94 -3.28,-7.78 -5.18,-11.57c-0.26,-0.54 -0.05,-1.18 0.49,-1.45c0.4,-0.2 0.88,-0.12 1.2,0.17c3.92,3.54 8.18,6.73 12.72,9.4c2.27,1.33 4.61,2.53 7.03,3.49c2.4,0.94 4.95,1.72 7.34,1.71c1.19,0 2.31,-0.28 2.93,-0.9c0.63,-0.61 0.88,-1.64 0.79,-2.81c-0.17,-2.34 -1.22,-4.8 -2.37,-7.11c-2.39,-4.64 -5.49,-8.99 -8.72,-13.2c-0.4,-0.53 -0.3,-1.29 0.22,-1.69c0.49,-0.37 1.17,-0.32 1.59,0.1l0,0.01c3.27,3.27 6.8,6.32 10.75,8.58c1.96,1.12 4.04,2.06 6.17,2.53c1.06,0.26 2.12,0.33 3.14,0.29c1.01,-0.1 1.95,-0.37 2.67,-0.89c0.71,-0.52 1.22,-1.27 1.42,-2.19c0.2,-0.92 0.17,-1.95 -0.03,-2.98c-0.43,-2.06 -1.47,-4.09 -2.69,-5.96c-1.24,-1.88 -2.74,-3.62 -4.34,-5.25c-1.59,-1.66 -3.36,-3.15 -5.13,-4.62l-0.02,-0.01c-0.53,-0.44 -0.6,-1.23 -0.16,-1.77c0.22,-0.26 0.53,-0.42 0.85,-0.45c3.97,-0.35 7.92,-1.08 11.73,-2.23c1.91,-0.57 3.77,-1.26 5.56,-2.08c1.77,-0.82 3.53,-1.76 4.9,-2.96c0.7,-0.57 1.28,-1.27 1.48,-1.85c0.07,-0.15 0.04,-0.26 0.09,-0.38c-0.04,-0.1 0,-0.2 -0.05,-0.3c-0.07,-0.19 -0.22,-0.42 -0.5,-0.65c-0.52,-0.47 -1.41,-0.81 -2.26,-1.11c-0.46,-0.12 -0.9,-0.27 -1.37,-0.37l-1.43,-0.29c-3.88,-0.59 -7.92,-0.67 -11.94,-0.57c-0.72,0.02 -1.31,-0.54 -1.33,-1.26c-0.01,-0.56 0.33,-1.05 0.83,-1.24c3.65,-1.42 7.22,-3.08 10.61,-5.02c1.69,-0.98 3.34,-2.01 4.87,-3.16c0.77,-0.58 1.51,-1.18 2.18,-1.82c0.66,-0.63 1.28,-1.32 1.66,-1.99c0.18,-0.33 0.29,-0.65 0.3,-0.85c0.01,-0.2 -0.02,-0.25 -0.15,-0.41c-0.28,-0.33 -1.14,-0.65 -1.99,-0.8c-1.76,-0.33 -3.72,-0.31 -5.65,-0.22c-3.88,0.21 -7.79,0.8 -11.68,1.5c-0.68,0.12 -1.34,-0.33 -1.46,-1.01c-0.1,-0.57 0.19,-1.11 0.68,-1.36c4.51,-2.22 8.96,-4.57 13.22,-7.2c2.12,-1.32 4.2,-2.7 6.13,-4.23c0.96,-0.76 1.88,-1.56 2.66,-2.42c0.38,-0.42 0.73,-0.87 0.95,-1.28c0.1,-0.19 0.18,-0.39 0.18,-0.49c0.01,-0.05 0.01,-0.06 0.01,-0.06c-0.01,-0.04 -0.4,-0.24 -0.85,-0.3c-0.5,-0.08 -1.08,-0.1 -1.66,-0.09c-1.17,0.03 -2.39,0.19 -3.6,0.39c-2.43,0.41 -4.87,1.01 -7.28,1.67c-4.83,1.33 -9.61,2.94 -14.35,4.65c-0.61,0.22 -1.28,-0.1 -1.5,-0.7c-0.21,-0.6 0.09,-1.26 0.68,-1.49c3.55,-1.36 6.98,-3.07 10.14,-5.17c1.58,-1.05 3.09,-2.19 4.47,-3.46c1.37,-1.25 2.62,-2.66 3.43,-4.17c0.39,-0.75 0.64,-1.54 0.57,-2.16c-0.05,-0.61 -0.39,-1.05 -1.03,-1.44c-1.33,-0.72 -3.26,-0.91 -5.1,-0.87c-3.73,0.1 -7.53,0.82 -11.27,1.7c-0.59,0.14 -1.18,-0.22 -1.32,-0.81c-0.11,-0.44 0.07,-0.89 0.41,-1.15c3.42,-2.49 6.82,-5.01 10.08,-7.66c1.62,-1.33 3.21,-2.69 4.68,-4.14c0.73,-0.72 1.43,-1.47 2.04,-2.25c0.58,-0.76 1.11,-1.65 1.17,-2.25c0,-0.29 -0.02,-0.38 -0.21,-0.55c-0.19,-0.18 -0.57,-0.35 -0.99,-0.46c-0.86,-0.24 -1.88,-0.3 -2.88,-0.31c-2.03,-0.01 -4.11,0.21 -6.19,0.48c-4.14,0.57 -8.28,1.42 -12.41,2.32c-0.55,0.13 -1.09,-0.22 -1.22,-0.77c-0.1,-0.46 0.13,-0.92 0.53,-1.13c3.56,-1.86 7.03,-3.96 10.34,-6.26c1.65,-1.15 3.26,-2.35 4.79,-3.63c1.52,-1.29 3.01,-2.65 4.11,-4.16c0.27,-0.37 0.51,-0.76 0.65,-1.11c0.06,-0.16 0.1,-0.3 0.12,-0.42c-0.01,-0.04 0.01,-0.09 0.01,-0.13c0,-0.08 0,-0.14 -0.03,-0.16c0.01,-0.07 -0.21,-0.24 -0.58,-0.34c-0.36,-0.11 -0.8,-0.16 -1.26,-0.18c-1.86,-0.04 -3.87,0.31 -5.81,0.72c-3.93,0.84 -7.81,2.04 -11.66,3.29c-0.5,0.16 -1.04,-0.11 -1.2,-0.61c-0.15,-0.45 0.06,-0.94 0.48,-1.15c5.16,-2.53 9.98,-5.83 14.49,-9.45c2.25,-1.83 4.42,-3.75 6.47,-5.79c2.03,-2.03 3.99,-4.18 5.56,-6.53c0.76,-1.17 1.47,-2.43 1.69,-3.64c0.12,-0.6 0.03,-1.1 -0.22,-1.41c-0.25,-0.32 -0.8,-0.54 -1.42,-0.63c-1.26,-0.19 -2.7,0.01 -4.08,0.27c-1.39,0.27 -2.78,0.65 -4.16,1.07c-5.51,1.73 -10.86,4.1 -16.15,6.56l-0.02,0.02c-0.35,0.16 -0.77,0.01 -0.94,-0.35c-0.1,-0.22 -0.08,-0.48 0.05,-0.68c2,-3.11 4.62,-5.54 7.16,-8c2.55,-2.44 5.15,-4.82 7.52,-7.39c1.17,-1.28 2.29,-2.62 3.24,-4.05c0.93,-1.42 1.75,-2.97 1.95,-4.59c0.15,-0.8 0.05,-1.61 -0.13,-2.38c-0.23,-0.67 -0.53,-1.31 -0.97,-1.89c-1.15,-0.35 -2.45,-0.18 -3.51,0.49c-9.34,5.85 -18.36,12.21 -27.01,19.03c0.28,0.15 0.55,0.32 0.81,0.53c0.46,0.4 0.84,0.92 1.07,1.49c0.23,0.57 0.29,1.17 0.3,1.75c-0.01,1.16 -0.3,2.24 -0.66,3.25c-0.73,2.04 -1.76,3.9 -2.84,5.71c-1.09,1.8 -2.26,3.54 -3.46,5.26l-7.26,10.18c-1.19,1.7 -2.35,3.41 -3.38,5.17c-0.47,0.81 -0.9,1.63 -1.27,2.46c1.02,-1.02 2.07,-2.01 3.19,-2.95c0.49,-0.41 1,-0.81 1.55,-1.18c0.55,-0.37 1.12,-0.74 1.89,-0.98c0.18,-0.07 0.44,-0.1 0.66,-0.14c0.18,0.01 0.35,0 0.55,0.03c2.37,-2.97 4.86,-5.85 7.36,-8.7c2.65,-3.02 5.21,-6.11 7.6,-9.34c0.17,-0.23 0.5,-0.28 0.74,-0.11c0.23,0.17 0.28,0.5 0.12,0.73c-2.34,3.31 -4.87,6.49 -7.46,9.58c-2.44,2.89 -4.83,5.78 -7.11,8.76c0.09,0.15 0.16,0.3 0.19,0.44c0.26,0.9 0.16,1.57 0.09,2.25c-0.4,2.65 -1.28,4.98 -2.15,7.34c-0.89,2.35 -1.86,4.64 -2.87,6.92c-2.01,4.56 -4.2,9.02 -6.43,13.47c-1.56,3.08 -3.15,6.14 -4.77,9.19c0.67,-0.38 1.37,-0.73 2.16,-1c0.61,-0.19 1.32,-0.35 2.15,-0.2c0.84,0.12 1.69,0.81 2.02,1.52c0.35,0.71 0.45,1.38 0.5,2.01c0.06,0.63 0.03,1.23 -0.01,1.82c-0.22,2.34 -0.8,4.51 -1.44,6.66c-0.14,0.44 -0.29,0.86 -0.43,1.3c3.84,-2.21 7.27,-5.21 9.95,-8.76c1.6,-2.14 2.91,-4.49 3.78,-7.01c0.88,-2.51 1.29,-5.18 1.14,-7.85c-0.01,-0.29 0.21,-0.54 0.5,-0.56c0.29,-0.02 0.54,0.2 0.56,0.49c0.24,2.8 -0.11,5.65 -0.96,8.33c-0.85,2.69 -2.16,5.21 -3.78,7.5c-1.61,2.29 -3.53,4.37 -5.65,6.2c-1.99,1.71 -4.16,3.21 -6.5,4.43c-0.28,0.74 -0.55,1.49 -0.84,2.23c-1.63,4.12 -3.47,8.15 -5.51,12.09c-1.02,1.97 -2.09,3.91 -3.25,5.82c-0.18,0.29 -0.36,0.59 -0.55,0.88c0.05,-0.03 0.1,-0.06 0.15,-0.08c0.88,-0.44 1.78,-0.87 2.76,-1.22c0.49,-0.16 0.99,-0.33 1.55,-0.43c0.55,-0.09 1.14,-0.19 1.91,0c0.37,0.11 0.81,0.29 1.14,0.68c0.17,0.17 0.27,0.39 0.38,0.59c0.07,0.19 0.15,0.41 0.17,0.59c0.11,0.76 -0.02,1.35 -0.15,1.89c-0.31,1.08 -0.76,2 -1.24,2.88c-0.97,1.76 -2.11,3.37 -3.3,4.92c-2.42,3.08 -5.09,5.93 -8.03,8.52c-1.47,1.29 -3.02,2.52 -4.69,3.6c-1.1,0.69 -2.25,1.34 -3.51,1.84c2.46,1.83 4.83,3.82 6.86,6.3c0.59,0.8 1.17,1.62 1.55,2.66c0.08,0.26 0.2,0.5 0.24,0.79c0.05,0.3 0.08,0.59 0.11,0.89c-0.02,0.31 -0.07,0.63 -0.12,0.95c-0.1,0.31 -0.25,0.61 -0.39,0.9c-0.73,1.13 -1.85,1.59 -2.83,1.89c-1.01,0.32 -2,0.39 -2.98,0.45c-3.92,0.06 -7.66,-0.81 -11.22,-2.15c-2.05,-0.8 -4.05,-1.78 -5.91,-2.99c0.04,0.13 0.1,0.26 0.14,0.39c0.5,1.71 0.75,3.53 0.27,5.41c-0.25,0.9 -0.84,1.99 -2,2.41c-1.14,0.39 -2.19,0.02 -3.01,-0.37c-0.96,-0.49 -1.78,-1.11 -2.53,-1.78c0.15,1.34 0.19,2.68 0.13,4.03c-0.1,2.06 -0.43,4.14 -1.18,6.12c-0.74,1.95 -2,3.88 -3.96,4.95c-0.84,0.47 -1.74,0.72 -2.66,0.83c0.16,0.81 0.31,1.62 0.5,2.43c1.25,5.5 3.09,11.09 7.04,15.19c0.43,0.44 0.96,0.79 1.54,1zm74.38,-93.15c-0.68,0.88 -1.6,1.52 -2.54,2.01c-0.95,0.51 -1.92,0.91 -2.93,1.21c-0.28,0.08 -0.58,-0.08 -0.67,-0.37c-0.06,-0.23 0.03,-0.46 0.21,-0.59c0.87,-0.6 1.77,-1.09 2.64,-1.6c0.86,-0.52 1.7,-1.01 2.6,-1.47l0.01,-0.01c0.27,-0.13 0.6,-0.03 0.73,0.24c0.1,0.19 0.08,0.42 -0.05,0.58zm-7.45,-57.03c1.72,-1.69 3.29,-3.42 4.62,-5.34c1.35,-1.91 2.42,-3.99 3.35,-6.21c0.11,-0.27 0.43,-0.4 0.7,-0.29c0.23,0.09 0.36,0.33 0.33,0.56c-0.32,2.52 -1.34,4.94 -2.77,7.05c-1.44,2.11 -3.35,3.94 -5.61,5.09c-0.27,0.14 -0.59,0.03 -0.73,-0.23c-0.11,-0.22 -0.05,-0.48 0.11,-0.63zm7.08,31.75l0,-0.01c0.1,-0.28 0.4,-0.43 0.68,-0.34c0.23,0.08 0.37,0.29 0.37,0.51c0.01,2.19 -0.85,4.34 -2.13,6.1c-1.29,1.77 -3.04,3.22 -5.06,4.02c-0.27,0.11 -0.58,-0.03 -0.69,-0.3c-0.09,-0.24 -0.01,-0.5 0.19,-0.64l0,0c1.63,-1.14 3.02,-2.51 4.12,-4.1c1.1,-1.6 1.89,-3.35 2.52,-5.24zm-20.99,-13.8c-0.25,0.16 -0.58,0.08 -0.73,-0.17c-0.14,-0.22 -0.1,-0.49 0.07,-0.66c1.59,-1.61 3.12,-3.22 4.53,-4.94c1.42,-1.72 2.69,-3.54 3.94,-5.42c0.16,-0.25 0.49,-0.32 0.74,-0.16c0.21,0.14 0.29,0.41 0.21,0.64c-0.82,2.19 -2.07,4.22 -3.54,6.04c-1.49,1.82 -3.22,3.44 -5.22,4.67zm2.19,56.83c0.07,-0.22 0.27,-0.36 0.48,-0.38l0.01,0c1.2,-0.07 2.35,-0.17 3.49,-0.38c1.13,-0.2 2.24,-0.48 3.32,-0.84c1.07,-0.38 2.13,-0.81 3.15,-1.33c1.03,-0.49 2.03,-1.08 3.08,-1.68l0.01,0c0.26,-0.15 0.59,-0.06 0.74,0.2c0.11,0.18 0.09,0.4 -0.02,0.57c-0.71,1.08 -1.68,1.98 -2.74,2.72c-1.08,0.73 -2.27,1.31 -3.52,1.68c-1.24,0.39 -2.54,0.61 -3.84,0.64c-1.29,0.03 -2.59,-0.12 -3.82,-0.52c-0.28,-0.1 -0.43,-0.4 -0.34,-0.68zm-7.94,22.32c0,-0.23 0.14,-0.42 0.34,-0.5l0.01,0c1.11,-0.45 2.18,-0.91 3.19,-1.46c1.01,-0.55 1.98,-1.16 2.89,-1.85c0.9,-0.69 1.76,-1.43 2.57,-2.24c0.83,-0.8 1.59,-1.67 2.4,-2.57l0.01,0c0.2,-0.23 0.54,-0.25 0.77,-0.05c0.15,0.14 0.21,0.36 0.16,0.55c-0.33,1.26 -0.98,2.41 -1.75,3.45c-0.8,1.03 -1.75,1.95 -2.81,2.7c-1.06,0.76 -2.23,1.38 -3.45,1.81c-1.22,0.43 -2.5,0.7 -3.79,0.7c-0.3,0 -0.54,-0.24 -0.54,-0.54zm-10.34,11.08l0.01,0c1.57,-0.53 3.03,-1.24 4.35,-2.19c0.65,-0.47 1.27,-0.99 1.85,-1.55c0.59,-0.56 1.12,-1.18 1.64,-1.83l0.01,-0.01c0.19,-0.23 0.52,-0.26 0.75,-0.07c0.19,0.15 0.25,0.4 0.16,0.61c-0.34,0.85 -0.85,1.63 -1.43,2.34c-0.59,0.7 -1.28,1.33 -2.03,1.86c-1.5,1.05 -3.28,1.76 -5.1,1.88c-0.3,0.02 -0.55,-0.2 -0.57,-0.49c-0.02,-0.25 0.14,-0.47 0.36,-0.55z" fill="#8d8741" id="svg_5"/>
    </g>
    <g id="svg_6">
     <path d="m319.33,375.91c1.04,-0.04 2.05,-0.27 2.93,-0.78c1.62,-0.91 2.7,-2.59 3.35,-4.39c0.65,-1.81 0.94,-3.78 1.01,-5.74c0.06,-1.96 -0.09,-3.95 -0.54,-5.82c-0.09,-0.38 0.15,-0.77 0.53,-0.87c0.26,-0.06 0.51,0.03 0.69,0.2l0,0.01c1.13,1.16 2.37,2.27 3.71,2.93c0.66,0.31 1.36,0.46 1.83,0.27c0.47,-0.16 0.82,-0.7 1,-1.38c0.34,-1.38 0.13,-3.02 -0.33,-4.49c-0.47,-1.48 -1.23,-2.89 -2.3,-3.94l0,0c-0.01,0 -0.01,-0.01 -0.02,-0.02c-0.33,-0.33 -0.33,-0.87 0.01,-1.2c0.33,-0.33 0.87,-0.32 1.2,0c0.01,0.01 0.01,0.02 0.02,0.02l0,0c2.48,2.52 5.73,4.29 9.09,5.56c3.37,1.25 6.99,2.03 10.51,1.94c0.86,-0.06 1.73,-0.14 2.49,-0.39c0.76,-0.23 1.46,-0.61 1.73,-1.08c0.04,-0.13 0.11,-0.25 0.16,-0.37c0.01,-0.15 0.03,-0.29 0.05,-0.43c-0.03,-0.17 -0.05,-0.33 -0.07,-0.5c-0.01,-0.16 -0.12,-0.35 -0.17,-0.52c-0.26,-0.71 -0.76,-1.43 -1.28,-2.11c-2.23,-2.7 -5.18,-4.95 -8.16,-7.06c-0.47,-0.33 -0.58,-0.98 -0.25,-1.45c0.16,-0.22 0.4,-0.37 0.65,-0.42l0.02,0c1.63,-0.32 3.29,-1.2 4.83,-2.2c1.56,-1.01 3.03,-2.18 4.44,-3.42c2.82,-2.5 5.41,-5.28 7.72,-8.25c1.15,-1.49 2.23,-3.04 3.11,-4.64c0.43,-0.8 0.82,-1.63 1.03,-2.41c0.11,-0.38 0.15,-0.76 0.11,-0.95c-0.02,-0.1 -0.03,-0.12 -0.03,-0.11c0.02,0 -0.01,0 -0.08,-0.03c-0.17,-0.06 -0.57,-0.03 -0.95,0.04c-0.39,0.07 -0.81,0.21 -1.22,0.35c-0.83,0.3 -1.67,0.69 -2.5,1.11c-1.66,0.86 -3.28,1.83 -4.88,2.86c-0.51,0.33 -1.19,0.18 -1.52,-0.34c-0.31,-0.47 -0.2,-1.1 0.23,-1.45l0.03,-0.02c0.62,-0.5 1.31,-1.41 1.9,-2.25c0.61,-0.87 1.19,-1.78 1.75,-2.71c1.12,-1.85 2.16,-3.76 3.16,-5.69c1.99,-3.88 3.83,-7.84 5.44,-11.88c0.8,-2.02 1.54,-4.07 2.18,-6.13c0.63,-2.05 1.18,-4.15 1.37,-6.19c0.09,-0.99 0.05,-2.06 -0.24,-2.65c-0.16,-0.28 -0.26,-0.34 -0.51,-0.4c-0.25,-0.04 -0.66,0 -1.09,0.14c-1.76,0.6 -3.55,1.96 -5.2,3.27l-0.01,0.01c-0.46,0.37 -1.14,0.29 -1.51,-0.17c-0.27,-0.35 -0.3,-0.82 -0.1,-1.18c4.72,-8.68 9.26,-17.5 13.37,-26.48c1.01,-2.24 2,-4.51 2.89,-6.79c0.86,-2.27 1.74,-4.62 2.1,-6.89c0.08,-0.54 0.1,-1.13 0,-1.42c-0.01,-0.05 -0.02,-0.08 -0.03,-0.09c-0.01,0 -0.03,0 -0.04,-0.01c-0.09,0.03 -0.14,0.01 -0.26,0.06c-0.41,0.12 -0.92,0.41 -1.39,0.72c-0.48,0.32 -0.95,0.68 -1.42,1.06c-1.85,1.53 -3.59,3.29 -5.29,5.06l-0.03,0.03c-0.34,0.34 -0.89,0.35 -1.23,0.02c-0.17,-0.16 -0.25,-0.37 -0.27,-0.58c-0.07,-1.35 0.35,-2.42 0.76,-3.44c0.44,-1.01 0.96,-1.96 1.5,-2.87c1.09,-1.83 2.29,-3.56 3.51,-5.27l7.42,-10.06c2.39,-3.37 4.83,-6.8 6.31,-10.55c0.35,-0.94 0.61,-1.9 0.63,-2.84c0.03,-0.93 -0.25,-1.78 -0.92,-2.34c-0.43,-0.39 -1.01,-0.64 -1.62,-0.82c-0.37,0.14 -0.72,0.33 -1.05,0.51c-2.49,1.43 -4.93,2.93 -8.59,5.3c-10.6,6.88 -18.72,17.5 -22.57,29.54c-2.39,7.4 -3.16,15.2 -4.1,22.93c-1.64,13.64 -3.79,27.36 -8.6,40.24c-3.65,9.78 -8.95,19.11 -17.05,27.77c-1.84,1.97 -4.64,3.67 -7.07,5.76c-0.92,0.79 -1.84,1.59 -2.61,2.51c-3.21,3.76 -3.68,9.15 -3.17,14.07c0.36,3.43 1.12,6.81 2.27,10.06c0.28,0.78 0.64,1.59 1.23,2.13z" fill="#8d8741" id="svg_7"/>
    </g>
    <g id="svg_8">
     <path d="m537.47,85.19c0.08,-0.68 0.11,-1.45 -0.37,-1.95c-0.56,-0.61 -1.55,-0.51 -2.35,-0.29c-1.64,0.48 -3.18,1.32 -6.15,3.07c2.31,-5.26 3.78,-10.89 4.35,-16.61c0.38,-3.95 0.18,-8.36 -2.5,-11.28c-0.52,-0.57 -1.23,-1.1 -1.98,-0.97c-0.89,0.15 -1.37,1.11 -1.72,1.95l-14.37,34.95c-3.76,9.15 -7.53,18.33 -12.34,26.98c-9.39,16.91 -22.56,31.48 -37.1,44.23c-12.26,10.76 -25.52,20.3 -38.91,29.63c0.31,0.51 0.56,1.07 0.76,1.65c0.23,0.93 0.35,1.91 0.19,2.85c-0.24,1.9 -1.12,3.57 -2.09,5.09c-0.99,1.52 -2.14,2.91 -3.33,4.23c-2.4,2.65 -4.99,5.06 -7.52,7.51c-1.84,1.82 -3.72,3.63 -5.3,5.61c4.49,-2.1 9.05,-4.08 13.81,-5.62c1.42,-0.44 2.85,-0.85 4.33,-1.15c1.48,-0.28 2.98,-0.54 4.63,-0.31c0.81,0.12 1.75,0.38 2.46,1.19c0.15,0.19 0.27,0.39 0.37,0.59c6.1,-3.28 11.74,-7.39 16.97,-11.99c5.5,-4.82 10.63,-10.09 15.92,-15.21c0.21,-0.21 0.55,-0.2 0.75,0.01c0.2,0.21 0.2,0.54 -0.01,0.75c-5.2,5.17 -10.28,10.51 -15.77,15.46c-5.35,4.84 -11.2,9.21 -17.57,12.68c-0.01,0.16 -0.03,0.32 -0.06,0.47c-0.31,1.69 -1.11,3.01 -1.91,4.3c-0.61,0.92 -1.27,1.79 -1.95,2.64c3.02,-1.78 5.95,-3.71 8.79,-5.77c4.17,-3.02 8.18,-6.27 12.16,-9.56c0.22,-0.19 0.56,-0.15 0.74,0.07c0.19,0.23 0.16,0.56 -0.06,0.75c-3.93,3.35 -7.9,6.68 -12.06,9.79c-4.02,3.01 -8.22,5.78 -12.64,8.2c-0.24,0.25 -0.47,0.5 -0.72,0.74c-2.08,2.11 -4.28,4.08 -6.57,5.95c-2.44,1.97 -4.96,3.84 -7.58,5.56c1.28,-0.35 2.58,-0.68 3.89,-0.96c2.03,-0.43 4.07,-0.82 6.29,-0.78c0.56,0.02 1.14,0.07 1.75,0.25c0.5,0.15 1.15,0.43 1.59,1.06c5.65,-2.69 11.04,-6 16.01,-9.85c0.23,-0.18 0.57,-0.14 0.75,0.09c0.17,0.23 0.14,0.55 -0.08,0.74c-5.01,4.25 -10.49,7.94 -16.34,11.01c-0.05,0.22 -0.12,0.42 -0.18,0.6c-0.24,0.59 -0.55,1.07 -0.87,1.53c-1.3,1.79 -2.86,3.18 -4.44,4.54c-1.58,1.34 -3.24,2.58 -4.92,3.76c-1.59,1.11 -3.2,2.16 -4.84,3.17c2.04,-0.4 4.1,-0.75 6.17,-1.04c2.13,-0.29 4.27,-0.53 6.48,-0.53c1.11,0.02 2.23,0.06 3.43,0.38c0.59,0.17 1.23,0.39 1.84,0.92c0.64,0.5 1.01,1.53 0.91,2.29c-0.2,1.53 -0.94,2.46 -1.6,3.38c-0.45,0.6 -0.94,1.14 -1.43,1.66c4.16,-0.88 8.26,-2.1 12.28,-3.57c5.06,-1.86 9.98,-4.12 14.71,-6.73c0.26,-0.14 0.58,-0.05 0.72,0.2c0.14,0.26 0.05,0.58 -0.19,0.72c-4.72,2.76 -9.64,5.15 -14.72,7.17c-4.92,1.93 -10,3.51 -15.22,4.55c-1.04,0.95 -2.11,1.88 -3.19,2.77c-2.01,1.64 -4.05,3.22 -6.12,4.77c2.24,-0.39 4.51,-0.68 6.83,-0.75c2.01,-0.01 4.13,0.05 6.26,1.16c0.51,0.31 1.04,0.7 1.43,1.26c0.41,0.54 0.65,1.23 0.72,1.89c0.05,0.58 -0.02,1.11 -0.14,1.62c9.11,-2.78 18.43,-4.67 27.76,-6.23c0.29,-0.05 0.56,0.15 0.61,0.44c0.05,0.28 -0.14,0.55 -0.42,0.6c-9.84,1.99 -19.63,4.33 -29.04,7.68c-0.97,1.6 -2.19,2.93 -3.48,4.13c-1.04,0.97 -2.15,1.86 -3.3,2.69c0.56,-0.17 1.12,-0.34 1.68,-0.5c2.47,-0.68 4.96,-1.3 7.52,-1.74c1.28,-0.21 2.58,-0.39 3.94,-0.43c0.68,-0.01 1.37,0 2.12,0.12c0.38,0.07 0.76,0.15 1.19,0.33c0.41,0.18 0.89,0.45 1.27,0.99c0.38,0.54 0.47,1.25 0.38,1.76c-0.07,0.53 -0.25,0.92 -0.44,1.29c-0.38,0.7 -0.83,1.25 -1.29,1.77c-0.85,0.94 -1.77,1.74 -2.7,2.5c5.83,-1.86 11.7,-3.61 17.62,-5.19c8.09,-2.16 16.26,-4.01 24.48,-5.6c0.29,-0.06 0.57,0.13 0.63,0.42c0.05,0.29 -0.13,0.56 -0.42,0.62c-8.18,1.68 -16.3,3.61 -24.34,5.86c-7.47,2.08 -14.85,4.43 -22.18,6.96c-0.79,0.52 -1.58,1.04 -2.38,1.54c-2.17,1.35 -4.38,2.62 -6.62,3.84c1.46,-0.17 2.94,-0.32 4.43,-0.41c2.04,-0.09 4.09,-0.15 6.26,0.25c0.54,0.09 1.1,0.24 1.67,0.46c0.14,0.06 0.29,0.12 0.44,0.19c4.93,-2.3 10.1,-4.38 15.57,-5.08c0.29,-0.03 0.56,0.17 0.6,0.46c0.03,0.28 -0.15,0.54 -0.43,0.59c-4.95,0.99 -9.55,3.15 -14.01,5.58c0.29,0.52 0.45,1.13 0.39,1.68c-0.05,0.79 -0.33,1.42 -0.62,1.96c-0.61,1.06 -1.36,1.86 -2.12,2.6c-0.77,0.74 -1.58,1.4 -2.41,2.02c-1.65,1.25 -3.37,2.34 -5.14,3.35c-1.71,0.97 -3.46,1.87 -5.23,2.71c2.05,0.09 4.12,0.27 6.19,0.59l1.58,0.32c0.52,0.11 1.05,0.28 1.58,0.42c1.05,0.39 2.12,0.74 3.15,1.63c0.28,0.23 0.54,0.52 0.78,0.86c12.77,-1.67 25.46,-4.11 37.96,-7.32c0.28,-0.08 0.57,0.09 0.64,0.38c0.08,0.28 -0.09,0.56 -0.36,0.64c-12.34,3.6 -24.9,6.45 -37.61,8.53c-0.05,0.35 -0.09,0.72 -0.21,1.01c-0.52,1.35 -1.38,2.2 -2.22,2.93c-1.71,1.48 -3.6,2.46 -5.52,3.35c-1.74,0.79 -3.52,1.44 -5.32,2c10.66,3 22.09,3.35 32.93,0.91c0.29,-0.07 0.57,0.11 0.64,0.4c0.06,0.28 -0.12,0.56 -0.4,0.63c-11.76,2.8 -24.27,2.38 -35.86,-1.18c-2.37,0.61 -4.78,1.09 -7.2,1.41c1.07,0.94 2.12,1.9 3.11,2.93c1.68,1.73 3.28,3.57 4.62,5.64c1.34,2.05 2.51,4.29 3.05,6.84c0.24,1.29 0.3,2.65 0,4.04c-0.3,1.38 -1.17,2.74 -2.37,3.59c-1.19,0.86 -2.59,1.23 -3.92,1.35c-1.33,0.07 -2.64,-0.04 -3.87,-0.34c-2.47,-0.56 -4.73,-1.6 -6.84,-2.81c-1.25,-0.72 -2.44,-1.51 -3.6,-2.34c1.11,1.73 2.14,3.51 3.09,5.36c1.2,2.47 2.38,5.02 2.61,8.05c0.05,0.76 0,1.56 -0.22,2.37c-0.04,0.16 -0.1,0.32 -0.16,0.47c6.68,7.55 14.34,14.23 22.77,19.82c0.25,0.16 0.31,0.49 0.15,0.74c-0.16,0.24 -0.48,0.31 -0.72,0.16c-8.53,-5.28 -16.38,-11.68 -23.32,-18.97c-0.01,0.01 -0.02,0.02 -0.03,0.03c-1.34,1.27 -3.07,1.53 -4.52,1.55c-2.18,-0.02 -4.18,-0.5 -6.1,-1.15c4.53,11.6 10.36,22.72 17.38,33.04c0.16,0.24 0.1,0.57 -0.14,0.74c-0.24,0.16 -0.57,0.1 -0.73,-0.13c-7.54,-10.69 -13.82,-22.27 -18.68,-34.44c-2.53,-1.03 -4.94,-2.28 -7.27,-3.66c-3.21,-1.91 -6.25,-4.08 -9.15,-6.42c1.09,2.36 2.12,4.76 3.02,7.23c0.72,2.05 1.4,4.13 1.63,6.45c0.04,0.59 0.05,1.19 -0.04,1.84c-0.1,0.63 -0.32,1.37 -0.88,1.98c-0.56,0.64 -1.42,0.91 -2.1,0.96c-0.7,0.04 -1.32,-0.06 -1.9,-0.2c-2.3,-0.62 -4.18,-1.74 -6.05,-2.86c-1.85,-1.14 -3.62,-2.37 -5.36,-3.64c-2.57,-1.87 -5.05,-3.84 -7.52,-5.82c1.39,3.98 2.68,8.01 3.63,12.16c0.52,2.44 1.03,4.91 0.92,7.55c6.31,9.4 14.02,17.86 22.83,25c0.23,0.18 0.27,0.52 0.08,0.74c-0.18,0.23 -0.51,0.27 -0.74,0.09c-8.58,-6.77 -16.17,-14.79 -22.5,-23.71c-0.07,0.23 -0.16,0.47 -0.28,0.71c-0.34,0.74 -1.1,1.5 -2.02,1.69c-0.89,0.2 -1.7,0.04 -2.41,-0.18c-0.71,-0.22 -1.35,-0.54 -1.97,-0.87c-1.18,-0.68 -2.27,-1.45 -3.3,-2.27c3.46,7.76 7.19,15.42 11.56,22.69c0.16,0.25 0.08,0.58 -0.17,0.73c-0.25,0.16 -0.58,0.07 -0.73,-0.17c-4.96,-8.09 -9.11,-16.61 -12.98,-25.24c-0.27,-0.25 -0.54,-0.49 -0.81,-0.74c-1.96,-1.83 -3.81,-3.77 -5.61,-5.75c-3.06,-3.38 -5.95,-6.91 -8.73,-10.52c0.19,1.81 0.44,3.64 0.66,5.47c0.31,2.61 0.57,5.24 0.59,7.9c-0.01,2.64 -0.2,5.38 -1.28,7.93c-0.54,1.26 -1.33,2.46 -2.4,3.37c-0.24,0.2 -0.48,0.39 -0.74,0.56c1.01,7.56 2.47,15.06 4.38,22.45c0.78,3.03 1.67,6.08 3.35,8.71c0.37,0.6 0.85,1.19 1.53,1.34c1.47,0.31 2.35,-1.58 2.59,-3.05c0.78,-4.67 0.92,-9.45 0.44,-14.15c1.34,4.01 2.67,8.02 4.01,12.01c0.44,1.33 0.91,2.71 1.87,3.73c0.97,1.02 2.57,1.57 3.8,0.91c1.52,-0.82 1.72,-2.88 1.64,-4.6c-0.19,-3.66 -0.8,-7.28 -0.85,-9.9c4.94,4.59 9.88,9.2 14.84,13.79c0.88,0.83 1.78,1.66 2.88,2.13c1.1,0.49 2.46,0.55 3.44,-0.14c1.02,-0.7 1.42,-2.05 1.32,-3.27c-0.1,-1.23 -0.64,-2.38 -1.18,-3.49c-3.09,-6.44 -6.55,-12.7 -10.41,-18.77c7.68,8.07 15.38,16.16 24.04,23.14c2.15,1.74 4.42,3.43 7.07,4.19c1.25,0.35 2.66,0.47 3.79,-0.18c1.42,-0.81 1.99,-2.67 1.75,-4.3c-0.22,-1.63 -1.08,-3.09 -1.92,-4.5c-3.19,-5.38 -6.38,-10.76 -9.16,-17.74c6.3,6.38 12.59,12.76 19.21,18.81c4.6,4.2 9.56,8.33 15.56,9.98c2.29,0.64 5.09,0.73 6.65,-1.05c1.34,-1.54 1.2,-3.84 0.79,-5.83c-3.19,-15.83 -17.27,-26.96 -24.47,-41.41c8.97,9.98 18.18,20.16 30.04,26.43c1.84,0.98 3.81,1.86 5.91,1.92c2.08,0.05 4.32,-0.92 5.2,-2.81c0.56,-1.21 0.51,-2.61 0.35,-3.93c-0.94,-7.38 -5.07,-13.97 -9.74,-19.76c-4.66,-5.81 -9.98,-11.13 -13.11,-17.78c11.72,1.26 23.78,-0.86 34.37,-6.04c2.31,-1.14 4.89,-2.97 4.72,-5.55c-0.18,-2.74 -3.29,-4.18 -5.95,-4.89c-3.69,-0.98 -7.46,-1.68 -11.26,-2.08c4.49,-1.34 8.7,-3.58 12.31,-6.56c1.88,-1.56 3.75,-3.73 3.71,-6.5c10.98,-1.93 21.43,-6.89 29.85,-14.19c1.57,-1.36 3.21,-3.34 2.5,-5.29c-0.43,-1.17 -1.59,-1.88 -2.7,-2.44c-7.73,-3.81 -16.77,-3.68 -25.36,-3.02c-8.87,0.66 -17.68,1.79 -26.69,2.11c16.1,-5.63 31.32,-13.73 44.98,-23.92c4.81,-3.58 9.45,-7.46 13.24,-12.11c0.97,-1.21 1.95,-2.79 1.34,-4.21c-0.32,-0.74 -1.01,-1.26 -1.73,-1.61c-2.03,-0.98 -4.41,-0.86 -6.66,-0.66c-12,1.07 -23.83,3.9 -35.02,8.37c4.08,-2.67 7.79,-5.92 11,-9.59c0.65,-0.76 1.33,-1.62 1.37,-2.62c0.03,-1.16 -0.82,-2.21 -1.86,-2.72c-1.03,-0.52 -2.23,-0.59 -3.39,-0.61c-9.93,-0.09 -19.37,3.97 -28.94,7.85c11.89,-5.14 23.28,-11.42 33.96,-18.75c8.13,-5.57 15.96,-11.88 21.61,-19.96c0.97,-1.36 1.89,-2.87 1.93,-4.53c0.05,-1.67 -1.12,-3.48 -3.28,-3.25c7.52,-6.47 13.83,-14.34 18.5,-23.09c0.56,-1.03 1.07,-2.28 0.51,-3.29c-0.76,-1.36 -2.78,-1.14 -4.26,-0.63c-4.59,1.56 -8.78,4.05 -12.89,6.64c-8.94,5.65 -17.54,11.8 -26.13,17.96c-6.82,4.88 -13.64,9.77 -20.69,14.61c12.17,-8.87 23.47,-18.94 33.68,-30.02c3.04,-3.33 6.05,-6.82 7.78,-10.98c0.17,-0.4 0.33,-0.84 0.24,-1.27c-0.29,-1.29 -2.17,-1.11 -3.39,-0.59c-6.01,2.58 -11.76,5.79 -17.15,8.32c5.85,-3.63 11.62,-7.43 17.27,-11.36c6.03,-4.21 12.2,-8.86 15.24,-15.54c0.61,-1.33 1.06,-2.97 0.25,-4.19c5.94,-2.76 10.31,-8.68 10.99,-15.81c2.6,-2.16 5.17,-4.43 6.96,-7.29c1.77,-2.86 2.68,-6.44 1.13,-10.54c3.42,-2.53 6.36,-5.69 8.62,-9.28c0.74,-1.18 1.43,-2.44 1.61,-3.82c0.18,-1.38 -0.24,-2.91 -1.82,-4.3c4.88,-4.82 8.63,-10.79 10.87,-17.28c0.35,-1.02 0.64,-2.19 0.12,-3.13c-0.42,-0.75 -1.29,-1.16 -2.15,-1.22c-0.85,-0.06 -1.7,0.17 -2.5,0.45c-1.54,0.53 -3.01,1.22 -4.04,1.93c3.77,-5.18 7.48,-10.76 8.23,-17.12z" fill="#8d8741" id="svg_9"/>
    </g>
   </g>
   <g id="svg_10" transform="matrix(1 0 0 1 0 0)">
    <g id="svg_11">
     <path d="m272.31,394.58c3.94,-4.1 5.78,-9.69 7.03,-15.19c0.19,-0.81 0.35,-1.62 0.5,-2.43c-0.92,-0.11 -1.82,-0.36 -2.66,-0.83c-1.96,-1.07 -3.22,-3 -3.96,-4.95c-0.74,-1.98 -1.07,-4.06 -1.18,-6.12c-0.06,-1.35 -0.02,-2.69 0.13,-4.03c-0.75,0.67 -1.57,1.29 -2.53,1.78c-0.82,0.39 -1.87,0.76 -3.01,0.37c-1.16,-0.42 -1.75,-1.51 -2,-2.41c-0.48,-1.88 -0.23,-3.7 0.27,-5.41c0.04,-0.13 0.1,-0.26 0.14,-0.39c-1.86,1.21 -3.86,2.19 -5.91,2.99c-3.55,1.34 -7.3,2.21 -11.22,2.15c-0.98,-0.06 -1.97,-0.13 -2.98,-0.45c-0.98,-0.3 -2.09,-0.76 -2.83,-1.89c-0.14,-0.29 -0.29,-0.59 -0.39,-0.9c-0.05,-0.32 -0.1,-0.64 -0.12,-0.95c0.03,-0.3 0.06,-0.59 0.11,-0.89c0.04,-0.29 0.16,-0.53 0.24,-0.79c0.38,-1.04 0.96,-1.86 1.55,-2.66c2.03,-2.48 4.4,-4.47 6.86,-6.3c-1.26,-0.5 -2.41,-1.15 -3.51,-1.84c-1.67,-1.08 -3.22,-2.31 -4.69,-3.6c-2.94,-2.59 -5.61,-5.44 -8.02,-8.52c-1.2,-1.55 -2.34,-3.16 -3.31,-4.92c-0.48,-0.88 -0.93,-1.8 -1.23,-2.88c-0.14,-0.54 -0.27,-1.13 -0.16,-1.89c0.02,-0.18 0.11,-0.4 0.17,-0.59c0.11,-0.2 0.21,-0.42 0.39,-0.59c0.32,-0.38 0.76,-0.57 1.14,-0.68c0.76,-0.19 1.35,-0.09 1.9,0c0.56,0.1 1.06,0.27 1.55,0.43c0.98,0.35 1.88,0.78 2.77,1.22c0.05,0.03 0.09,0.05 0.14,0.08c-0.18,-0.29 -0.37,-0.59 -0.55,-0.88c-1.16,-1.91 -2.23,-3.85 -3.25,-5.82c-2.04,-3.94 -3.88,-7.97 -5.51,-12.09c-0.29,-0.74 -0.56,-1.49 -0.84,-2.23c-2.34,-1.22 -4.51,-2.72 -6.5,-4.43c-2.12,-1.83 -4.03,-3.91 -5.65,-6.2c-1.61,-2.29 -2.93,-4.81 -3.78,-7.5c-0.84,-2.68 -1.2,-5.53 -0.96,-8.33c0.02,-0.29 0.27,-0.51 0.56,-0.49c0.29,0.02 0.51,0.27 0.5,0.56c-0.15,2.67 0.26,5.34 1.14,7.85c0.87,2.52 2.19,4.87 3.78,7.01c2.68,3.55 6.12,6.55 9.95,8.76c-0.14,-0.44 -0.29,-0.86 -0.43,-1.3c-0.64,-2.15 -1.22,-4.32 -1.44,-6.66c-0.04,-0.59 -0.07,-1.19 -0.01,-1.82c0.06,-0.63 0.15,-1.3 0.51,-2.01c0.32,-0.71 1.17,-1.4 2.01,-1.52c0.83,-0.15 1.54,0 2.16,0.2c0.78,0.27 1.48,0.62 2.15,1c-1.62,-3.05 -3.21,-6.11 -4.77,-9.19c-2.23,-4.44 -4.42,-8.91 -6.43,-13.47c-1.01,-2.28 -1.98,-4.57 -2.87,-6.92c-0.87,-2.36 -1.75,-4.69 -2.15,-7.34c-0.07,-0.68 -0.17,-1.35 0.09,-2.25c0.03,-0.14 0.11,-0.29 0.19,-0.44c-2.28,-2.98 -4.67,-5.87 -7.1,-8.76c-2.6,-3.09 -5.13,-6.27 -7.47,-9.57c-0.16,-0.24 -0.11,-0.57 0.12,-0.74c0.24,-0.17 0.57,-0.12 0.75,0.11c2.38,3.23 4.94,6.32 7.6,9.34c2.49,2.85 4.98,5.73 7.36,8.71c0.19,-0.04 0.36,-0.03 0.55,-0.03c0.21,0.03 0.47,0.06 0.65,0.13c0.78,0.24 1.34,0.61 1.89,0.98c0.56,0.37 1.06,0.77 1.55,1.18c1.12,0.94 2.17,1.93 3.19,2.95c-0.37,-0.83 -0.8,-1.65 -1.27,-2.46c-1.02,-1.76 -2.19,-3.47 -3.38,-5.17l-7.26,-10.18c-1.2,-1.71 -2.37,-3.46 -3.46,-5.26c-1.08,-1.81 -2.11,-3.67 -2.84,-5.71c-0.36,-1.01 -0.65,-2.09 -0.66,-3.25c0.01,-0.58 0.07,-1.18 0.3,-1.75c0.23,-0.57 0.61,-1.09 1.07,-1.49c0.26,-0.21 0.53,-0.38 0.81,-0.53c-8.65,-6.82 -17.67,-13.17 -27.01,-19.03c-1.06,-0.67 -2.36,-0.83 -3.51,-0.49c-0.44,0.58 -0.74,1.22 -0.97,1.89c-0.18,0.77 -0.28,1.58 -0.13,2.38c0.2,1.62 1.02,3.17 1.95,4.59c0.95,1.43 2.07,2.77 3.24,4.05c2.37,2.57 4.97,4.95 7.52,7.39c2.54,2.46 5.16,4.89 7.16,8c0.13,0.2 0.15,0.46 0.05,0.68c-0.17,0.36 -0.59,0.51 -0.94,0.35l-0.02,-0.01c-5.29,-2.46 -10.64,-4.84 -16.15,-6.57c-1.38,-0.42 -2.77,-0.8 -4.16,-1.07c-1.38,-0.26 -2.82,-0.46 -4.08,-0.27c-0.62,0.1 -1.17,0.31 -1.42,0.63c-0.25,0.31 -0.34,0.81 -0.22,1.42c0.22,1.2 0.93,2.46 1.69,3.63c1.57,2.35 3.53,4.5 5.56,6.54c2.05,2.03 4.22,3.95 6.47,5.78c4.51,3.63 9.33,6.92 14.49,9.45c0.42,0.21 0.63,0.7 0.48,1.15c-0.16,0.5 -0.7,0.78 -1.2,0.61c-3.85,-1.25 -7.73,-2.44 -11.65,-3.29c-1.95,-0.4 -3.96,-0.76 -5.82,-0.72c-0.46,0.02 -0.9,0.07 -1.26,0.18c-0.37,0.1 -0.59,0.27 -0.58,0.34c-0.02,0.02 -0.03,0.08 -0.03,0.16c0,0.04 0.02,0.09 0.01,0.13c0.02,0.12 0.06,0.26 0.12,0.42c0.14,0.35 0.38,0.74 0.65,1.11c1.1,1.51 2.59,2.88 4.11,4.16c1.53,1.28 3.14,2.49 4.8,3.64c3.3,2.29 6.77,4.39 10.33,6.25c0.4,0.21 0.63,0.67 0.53,1.13c-0.12,0.55 -0.67,0.9 -1.22,0.78c-4.12,-0.91 -8.26,-1.76 -12.41,-2.33c-2.08,-0.27 -4.16,-0.49 -6.19,-0.48c-1,0.01 -2.02,0.07 -2.88,0.31c-0.42,0.11 -0.8,0.28 -0.99,0.46c-0.19,0.17 -0.21,0.26 -0.2,0.55c0.05,0.6 0.58,1.49 1.17,2.25c0.6,0.78 1.3,1.53 2.03,2.25c1.47,1.45 3.06,2.81 4.69,4.14c3.25,2.65 6.65,5.17 10.07,7.67c0.34,0.25 0.52,0.7 0.42,1.14c-0.14,0.59 -0.74,0.95 -1.33,0.81c-3.73,-0.88 -7.53,-1.6 -11.27,-1.7c-1.84,-0.04 -3.76,0.15 -5.1,0.87c-0.64,0.39 -0.97,0.83 -1.03,1.44c-0.07,0.62 0.19,1.41 0.57,2.16c0.81,1.51 2.06,2.92 3.43,4.18c1.38,1.26 2.89,2.4 4.47,3.45c3.16,2.1 6.59,3.81 10.14,5.17c0.59,0.23 0.9,0.89 0.68,1.49c-0.22,0.61 -0.89,0.92 -1.49,0.7c-4.74,-1.71 -9.52,-3.32 -14.36,-4.65c-2.41,-0.66 -4.84,-1.26 -7.27,-1.67c-1.22,-0.2 -2.43,-0.36 -3.61,-0.39c-0.58,-0.01 -1.16,0.01 -1.66,0.09c-0.44,0.06 -0.83,0.26 -0.85,0.3c0,0 0,0.01 0.01,0.06c0,0.1 0.08,0.3 0.19,0.5c0.22,0.4 0.56,0.85 0.95,1.27c0.77,0.86 1.7,1.66 2.65,2.42c1.93,1.53 4.01,2.91 6.13,4.23c4.26,2.63 8.71,4.98 13.22,7.21c0.49,0.24 0.79,0.78 0.69,1.35c-0.13,0.68 -0.78,1.13 -1.47,1.01c-3.88,-0.69 -7.8,-1.29 -11.68,-1.5c-1.93,-0.09 -3.89,-0.11 -5.65,0.22c-0.85,0.15 -1.71,0.48 -1.99,0.8c-0.13,0.16 -0.16,0.21 -0.15,0.41c0.01,0.2 0.12,0.52 0.31,0.85c0.38,0.67 0.99,1.36 1.66,2c0.66,0.63 1.4,1.23 2.17,1.81c1.53,1.15 3.18,2.18 4.87,3.16c3.39,1.94 6.96,3.6 10.62,5.02c0.49,0.2 0.84,0.68 0.82,1.24c-0.01,0.72 -0.61,1.28 -1.32,1.26c-4.03,-0.1 -8.07,-0.02 -11.95,0.58l-1.42,0.28c-0.47,0.1 -0.92,0.25 -1.37,0.37c-0.86,0.3 -1.75,0.64 -2.27,1.12c-0.28,0.22 -0.42,0.46 -0.5,0.64c-0.04,0.1 -0.01,0.2 -0.05,0.3c0.05,0.13 0.02,0.23 0.09,0.38c0.2,0.58 0.78,1.28 1.48,1.85c1.37,1.2 3.13,2.14 4.9,2.97c1.79,0.81 3.65,1.5 5.56,2.07c3.81,1.15 7.76,1.88 11.73,2.23c0.32,0.03 0.63,0.19 0.85,0.45c0.45,0.54 0.37,1.33 -0.16,1.77l-0.01,0.01c-1.78,1.47 -3.55,2.96 -5.14,4.62c-1.6,1.63 -3.1,3.37 -4.33,5.25c-1.23,1.88 -2.27,3.9 -2.7,5.97c-0.19,1.02 -0.22,2.05 -0.02,2.97c0.2,0.92 0.7,1.67 1.41,2.19c0.72,0.52 1.67,0.79 2.67,0.89c1.02,0.05 2.08,-0.03 3.15,-0.29c2.12,-0.47 4.2,-1.41 6.16,-2.53c3.95,-2.26 7.48,-5.31 10.75,-8.58l0,-0.01c0.43,-0.42 1.1,-0.47 1.59,-0.1c0.53,0.41 0.63,1.16 0.22,1.69c-3.23,4.21 -6.33,8.56 -8.72,13.2c-1.15,2.31 -2.19,4.77 -2.37,7.11c-0.09,1.17 0.17,2.2 0.8,2.81c0.62,0.62 1.74,0.9 2.92,0.9c2.4,0.01 4.94,-0.77 7.34,-1.71c2.42,-0.96 4.76,-2.16 7.04,-3.49c4.53,-2.67 8.79,-5.86 12.71,-9.4c0.32,-0.29 0.8,-0.38 1.21,-0.17c0.53,0.27 0.75,0.91 0.48,1.45c-1.9,3.79 -3.72,7.63 -5.17,11.57c-0.71,1.96 -1.35,3.97 -1.55,5.91c-0.09,0.94 0.02,1.94 0.37,2.27c0.25,0.36 1.11,0.41 2.02,0.17c1.84,-0.48 3.71,-1.52 5.49,-2.59c1.79,-1.09 3.54,-2.29 5.25,-3.52c3.44,-2.49 6.77,-5.13 10.08,-7.81c0.25,-0.2 0.61,-0.27 0.93,-0.15c0.49,0.18 0.74,0.72 0.56,1.21c-1.84,4.96 -3.56,9.97 -4.79,15.07c-0.57,2.53 -1.1,5.16 -0.92,7.6c0.05,0.59 0.17,1.18 0.39,1.63c0.23,0.44 0.5,0.71 0.91,0.81c0.85,0.21 2.11,-0.28 3.18,-0.86c2.2,-1.23 4.22,-2.95 6.16,-4.71c1.93,-1.78 3.77,-3.67 5.56,-5.61c3.58,-3.88 6.96,-7.97 10.18,-12.17l0.01,-0.01c0.13,-0.17 0.35,-0.28 0.58,-0.26c0.37,0.03 0.65,0.35 0.62,0.72c-0.2,2.66 -0.61,5.25 -0.94,7.84c-0.33,2.58 -0.61,5.17 -0.65,7.75c-0.03,2.56 0.16,5.17 1.11,7.48c0.48,1.14 1.17,2.18 2.08,2.98c0.48,0.43 1.03,0.78 1.62,1.06c0.57,-0.2 1.1,-0.55 1.54,-1zm-75.98,-92.72c0.13,-0.27 0.46,-0.37 0.73,-0.23l0.01,0c0.9,0.46 1.74,0.96 2.6,1.48c0.87,0.5 1.77,0.99 2.64,1.59c0.18,0.13 0.27,0.36 0.21,0.59c-0.09,0.29 -0.39,0.45 -0.67,0.37c-1.01,-0.3 -1.98,-0.7 -2.93,-1.21c-0.95,-0.49 -1.86,-1.13 -2.54,-2.01c-0.13,-0.16 -0.15,-0.39 -0.05,-0.58zm7.61,-55.82c-0.14,0.26 -0.46,0.37 -0.73,0.23c-2.26,-1.15 -4.17,-2.98 -5.61,-5.09c-1.43,-2.11 -2.45,-4.53 -2.77,-7.05c-0.03,-0.23 0.1,-0.47 0.33,-0.56c0.27,-0.11 0.59,0.02 0.7,0.29c0.93,2.22 2,4.3 3.35,6.21c1.34,1.92 2.9,3.65 4.62,5.34c0.16,0.15 0.21,0.41 0.11,0.63zm-4.67,36.36c1.1,1.59 2.49,2.96 4.12,4.1l0,0c0.2,0.14 0.28,0.4 0.19,0.64c-0.11,0.27 -0.42,0.41 -0.69,0.3c-2.02,-0.8 -3.77,-2.25 -5.05,-4.02c-1.29,-1.77 -2.14,-3.91 -2.14,-6.1c0,-0.22 0.14,-0.43 0.37,-0.51c0.28,-0.09 0.59,0.06 0.68,0.34l0,0.01c0.63,1.89 1.42,3.64 2.52,5.24zm13.25,-23.71c-1.47,-1.82 -2.72,-3.85 -3.54,-6.04c-0.08,-0.23 0,-0.5 0.21,-0.64c0.25,-0.16 0.58,-0.09 0.74,0.16c1.25,1.88 2.52,3.7 3.94,5.42c1.41,1.72 2.94,3.33 4.53,4.94c0.17,0.17 0.21,0.45 0.07,0.66c-0.15,0.25 -0.48,0.33 -0.73,0.17c-2,-1.23 -3.74,-2.85 -5.22,-4.67zm2.69,62.18c-1.23,0.4 -2.53,0.55 -3.82,0.52c-1.3,-0.03 -2.6,-0.25 -3.84,-0.64c-1.25,-0.37 -2.44,-0.95 -3.52,-1.68c-1.06,-0.74 -2.03,-1.64 -2.75,-2.72c-0.1,-0.17 -0.12,-0.39 -0.01,-0.57c0.15,-0.26 0.48,-0.35 0.74,-0.2l0.01,0c1.05,0.6 2.04,1.19 3.08,1.68c1.02,0.52 2.08,0.95 3.15,1.33c1.08,0.36 2.19,0.64 3.32,0.84c1.14,0.21 2.29,0.31 3.49,0.38l0.01,0c0.21,0.02 0.41,0.16 0.48,0.38c0.09,0.28 -0.06,0.58 -0.34,0.68zm7.74,22.18c-1.29,0 -2.57,-0.27 -3.79,-0.7c-1.22,-0.43 -2.39,-1.05 -3.44,-1.81c-1.07,-0.75 -2.02,-1.67 -2.82,-2.7c-0.77,-1.04 -1.42,-2.19 -1.75,-3.45c-0.05,-0.19 0.01,-0.4 0.16,-0.55c0.23,-0.2 0.57,-0.18 0.77,0.05l0.01,0c0.81,0.9 1.57,1.77 2.4,2.57c0.81,0.81 1.67,1.54 2.57,2.24c0.92,0.69 1.88,1.3 2.89,1.85c1.01,0.55 2.08,1.01 3.19,1.46l0.01,0c0.2,0.08 0.34,0.27 0.34,0.5c0,0.3 -0.24,0.54 -0.54,0.54zm11.24,11.08c-0.02,0.3 -0.27,0.52 -0.57,0.5c-1.82,-0.12 -3.59,-0.83 -5.1,-1.88c-0.75,-0.53 -1.44,-1.16 -2.03,-1.87c-0.58,-0.7 -1.09,-1.48 -1.43,-2.33c-0.09,-0.21 -0.03,-0.46 0.16,-0.62c0.23,-0.18 0.57,-0.15 0.75,0.08l0.01,0.01c0.52,0.65 1.05,1.26 1.64,1.83c0.58,0.56 1.2,1.08 1.86,1.55c1.31,0.95 2.77,1.66 4.34,2.19l0.01,0c0.22,0.08 0.38,0.3 0.36,0.54z" fill="#8d8741" id="svg_12"/>
    </g>
    <g id="svg_13">
     <path d="m280.67,375.91c-1.04,-0.04 -2.05,-0.27 -2.93,-0.78c-1.61,-0.91 -2.7,-2.59 -3.35,-4.39c-0.65,-1.81 -0.94,-3.78 -1.01,-5.74c-0.06,-1.96 0.09,-3.95 0.54,-5.82c0.09,-0.38 -0.15,-0.77 -0.53,-0.87c-0.26,-0.06 -0.51,0.03 -0.69,0.2l0,0.01c-1.13,1.16 -2.37,2.27 -3.71,2.93c-0.66,0.31 -1.36,0.46 -1.83,0.27c-0.47,-0.16 -0.82,-0.7 -1,-1.38c-0.34,-1.38 -0.13,-3.02 0.33,-4.49c0.47,-1.48 1.23,-2.89 2.3,-3.94l0,0c0.01,0 0.01,-0.01 0.02,-0.02c0.33,-0.33 0.33,-0.87 -0.01,-1.2c-0.33,-0.33 -0.87,-0.32 -1.2,0c-0.01,0.01 -0.01,0.02 -0.02,0.02l0,0c-2.48,2.52 -5.73,4.29 -9.09,5.56c-3.37,1.25 -6.99,2.03 -10.51,1.94c-0.86,-0.06 -1.73,-0.14 -2.49,-0.39c-0.76,-0.23 -1.46,-0.61 -1.73,-1.08c-0.04,-0.13 -0.11,-0.25 -0.16,-0.37c-0.01,-0.15 -0.03,-0.29 -0.05,-0.43c0.03,-0.17 0.05,-0.33 0.07,-0.5c0.01,-0.16 0.12,-0.35 0.17,-0.52c0.26,-0.71 0.76,-1.43 1.28,-2.11c2.23,-2.7 5.18,-4.95 8.16,-7.06c0.47,-0.33 0.58,-0.98 0.25,-1.45c-0.16,-0.22 -0.4,-0.37 -0.65,-0.42l-0.02,0c-1.63,-0.32 -3.29,-1.2 -4.84,-2.2c-1.55,-1.01 -3.02,-2.18 -4.43,-3.42c-2.82,-2.5 -5.41,-5.28 -7.72,-8.25c-1.15,-1.49 -2.23,-3.04 -3.11,-4.64c-0.44,-0.8 -0.82,-1.63 -1.03,-2.41c-0.11,-0.38 -0.15,-0.76 -0.11,-0.95c0.01,-0.1 0.03,-0.12 0.03,-0.11c-0.02,0 0.01,0 0.08,-0.03c0.17,-0.06 0.57,-0.03 0.95,0.04c0.38,0.07 0.81,0.21 1.22,0.35c0.83,0.3 1.67,0.69 2.5,1.11c1.66,0.86 3.28,1.83 4.88,2.86c0.51,0.33 1.19,0.18 1.52,-0.34c0.31,-0.47 0.2,-1.1 -0.23,-1.45l-0.03,-0.02c-0.62,-0.5 -1.31,-1.41 -1.9,-2.25c-0.61,-0.87 -1.19,-1.78 -1.75,-2.71c-1.12,-1.85 -2.16,-3.76 -3.16,-5.69c-1.99,-3.88 -3.83,-7.84 -5.44,-11.88c-0.8,-2.02 -1.54,-4.07 -2.18,-6.13c-0.63,-2.05 -1.18,-4.15 -1.37,-6.19c-0.09,-0.99 -0.05,-2.06 0.24,-2.65c0.16,-0.28 0.26,-0.34 0.5,-0.4c0.26,-0.04 0.67,0 1.09,0.14c1.77,0.6 3.56,1.96 5.21,3.27l0.01,0.01c0.46,0.37 1.14,0.29 1.51,-0.17c0.27,-0.35 0.3,-0.82 0.1,-1.18c-4.72,-8.68 -9.27,-17.5 -13.37,-26.48c-1.01,-2.24 -2,-4.51 -2.89,-6.79c-0.86,-2.27 -1.74,-4.62 -2.1,-6.89c-0.08,-0.54 -0.1,-1.13 0,-1.42c0.01,-0.05 0.02,-0.08 0.03,-0.09c0.01,0 0.03,0 0.04,-0.01c0.09,0.03 0.14,0.01 0.26,0.06c0.41,0.12 0.92,0.41 1.39,0.72c0.48,0.32 0.95,0.68 1.42,1.06c1.85,1.53 3.59,3.29 5.29,5.06l0.03,0.03c0.34,0.34 0.89,0.35 1.23,0.02c0.17,-0.16 0.25,-0.37 0.27,-0.58c0.07,-1.35 -0.35,-2.42 -0.76,-3.44c-0.44,-1.01 -0.96,-1.96 -1.5,-2.87c-1.09,-1.83 -2.29,-3.56 -3.51,-5.27l-7.42,-10.06c-2.39,-3.37 -4.83,-6.8 -6.31,-10.55c-0.35,-0.94 -0.61,-1.9 -0.63,-2.84c-0.03,-0.93 0.25,-1.78 0.92,-2.34c0.43,-0.39 1.01,-0.64 1.62,-0.82c0.37,0.14 0.72,0.33 1.05,0.51c2.49,1.43 4.93,2.93 8.59,5.3c10.6,6.88 18.72,17.5 22.57,29.54c2.39,7.4 3.16,15.2 4.1,22.93c1.64,13.64 3.79,27.36 8.6,40.24c3.65,9.78 8.95,19.11 17.05,27.77c1.84,1.97 4.64,3.67 7.07,5.76c0.92,0.79 1.84,1.59 2.61,2.51c3.21,3.76 3.68,9.15 3.17,14.07c-0.36,3.43 -1.12,6.81 -2.27,10.06c-0.27,0.78 -0.64,1.59 -1.23,2.13z" fill="#8d8741" id="svg_14"/>
    </g>
    <g id="svg_15">
     <path d="m62.53,85.19c-0.08,-0.68 -0.11,-1.45 0.37,-1.95c0.56,-0.61 1.55,-0.51 2.35,-0.29c1.64,0.48 3.18,1.32 6.15,3.07c-2.31,-5.26 -3.78,-10.89 -4.35,-16.61c-0.38,-3.95 -0.18,-8.36 2.5,-11.28c0.52,-0.57 1.23,-1.1 1.98,-0.97c0.89,0.15 1.38,1.11 1.72,1.95l14.37,34.95c3.76,9.15 7.53,18.33 12.34,26.98c9.39,16.91 22.56,31.48 37.1,44.23c12.26,10.76 25.52,20.3 38.91,29.63c-0.31,0.51 -0.56,1.07 -0.76,1.65c-0.23,0.93 -0.35,1.91 -0.19,2.85c0.24,1.9 1.12,3.57 2.09,5.09c0.99,1.52 2.14,2.91 3.33,4.23c2.4,2.65 4.99,5.06 7.52,7.51c1.83,1.82 3.72,3.63 5.3,5.61c-4.49,-2.1 -9.05,-4.08 -13.81,-5.62c-1.42,-0.44 -2.85,-0.85 -4.33,-1.15c-1.48,-0.28 -2.98,-0.54 -4.63,-0.31c-0.81,0.12 -1.76,0.38 -2.46,1.19c-0.15,0.19 -0.27,0.39 -0.37,0.59c-6.1,-3.28 -11.75,-7.39 -16.97,-11.99c-5.5,-4.82 -10.64,-10.09 -15.92,-15.21c-0.21,-0.21 -0.55,-0.2 -0.75,0.01c-0.2,0.21 -0.2,0.54 0,0.75c5.21,5.17 10.28,10.51 15.78,15.46c5.35,4.84 11.19,9.21 17.57,12.68c0.01,0.16 0.03,0.32 0.06,0.47c0.31,1.69 1.11,3.01 1.91,4.3c0.61,0.92 1.27,1.79 1.95,2.64c-3.02,-1.78 -5.95,-3.71 -8.8,-5.77c-4.16,-3.02 -8.17,-6.27 -12.15,-9.56c-0.22,-0.19 -0.56,-0.15 -0.75,0.07c-0.18,0.23 -0.15,0.56 0.07,0.75c3.93,3.35 7.9,6.68 12.06,9.79c4.02,3.01 8.22,5.78 12.64,8.2c0.24,0.25 0.47,0.5 0.71,0.74c2.09,2.11 4.29,4.08 6.58,5.95c2.44,1.97 4.96,3.84 7.58,5.56c-1.29,-0.35 -2.58,-0.68 -3.89,-0.96c-2.03,-0.43 -4.07,-0.82 -6.29,-0.78c-0.56,0.02 -1.14,0.07 -1.75,0.25c-0.5,0.15 -1.15,0.43 -1.59,1.06c-5.65,-2.69 -11.05,-6 -16.01,-9.85c-0.23,-0.18 -0.57,-0.14 -0.75,0.09c-0.18,0.23 -0.14,0.55 0.07,0.74c5.02,4.25 10.5,7.94 16.35,11.01c0.05,0.22 0.11,0.42 0.18,0.6c0.24,0.59 0.54,1.07 0.86,1.53c1.31,1.79 2.86,3.18 4.44,4.54c1.59,1.34 3.24,2.58 4.93,3.76c1.58,1.11 3.2,2.16 4.84,3.17c-2.04,-0.4 -4.1,-0.75 -6.17,-1.04c-2.13,-0.29 -4.27,-0.53 -6.48,-0.53c-1.11,0.02 -2.23,0.06 -3.43,0.38c-0.59,0.17 -1.23,0.39 -1.84,0.92c-0.64,0.5 -1.01,1.53 -0.91,2.29c0.2,1.53 0.94,2.46 1.6,3.38c0.45,0.6 0.94,1.14 1.43,1.66c-4.16,-0.88 -8.26,-2.1 -12.28,-3.57c-5.06,-1.86 -9.98,-4.12 -14.71,-6.73c-0.26,-0.14 -0.58,-0.05 -0.72,0.2c-0.14,0.26 -0.05,0.58 0.19,0.72c4.72,2.76 9.64,5.15 14.72,7.17c4.92,1.93 10,3.51 15.21,4.55c1.05,0.95 2.11,1.88 3.2,2.77c2.01,1.64 4.05,3.22 6.12,4.77c-2.24,-0.39 -4.51,-0.68 -6.83,-0.75c-2.01,-0.01 -4.13,0.05 -6.26,1.16c-0.51,0.31 -1.04,0.7 -1.43,1.26c-0.41,0.54 -0.65,1.23 -0.72,1.89c-0.05,0.58 0.02,1.11 0.14,1.62c-9.11,-2.78 -18.43,-4.67 -27.76,-6.23c-0.29,-0.05 -0.56,0.15 -0.61,0.44c-0.05,0.28 0.14,0.55 0.42,0.6c9.84,1.99 19.63,4.33 29.04,7.68c0.97,1.6 2.18,2.93 3.48,4.13c1.04,0.97 2.15,1.86 3.3,2.69c-0.56,-0.17 -1.12,-0.34 -1.68,-0.5c-2.47,-0.68 -4.96,-1.3 -7.52,-1.74c-1.28,-0.21 -2.58,-0.39 -3.94,-0.43c-0.68,-0.01 -1.37,0 -2.12,0.12c-0.38,0.07 -0.76,0.15 -1.19,0.33c-0.41,0.18 -0.89,0.45 -1.27,0.99c-0.38,0.54 -0.47,1.25 -0.38,1.76c0.07,0.53 0.25,0.92 0.44,1.29c0.38,0.7 0.83,1.25 1.29,1.77c0.85,0.94 1.76,1.74 2.7,2.5c-5.83,-1.86 -11.7,-3.61 -17.62,-5.19c-8.09,-2.16 -16.27,-4.01 -24.48,-5.6c-0.29,-0.06 -0.57,0.13 -0.63,0.42c-0.05,0.29 0.13,0.56 0.42,0.62c8.18,1.68 16.3,3.61 24.34,5.86c7.46,2.08 14.85,4.43 22.18,6.96c0.79,0.52 1.58,1.04 2.38,1.54c2.17,1.35 4.38,2.62 6.62,3.84c-1.47,-0.17 -2.94,-0.32 -4.43,-0.41c-2.04,-0.09 -4.09,-0.15 -6.26,0.25c-0.55,0.09 -1.1,0.24 -1.67,0.46c-0.15,0.06 -0.29,0.12 -0.44,0.19c-4.93,-2.3 -10.1,-4.38 -15.58,-5.08c-0.29,-0.03 -0.55,0.17 -0.59,0.46c-0.04,0.28 0.15,0.54 0.42,0.59c4.96,0.99 9.56,3.15 14.01,5.58c-0.28,0.52 -0.44,1.13 -0.38,1.68c0.05,0.79 0.33,1.42 0.62,1.96c0.61,1.06 1.36,1.86 2.12,2.6c0.77,0.74 1.58,1.4 2.4,2.02c1.66,1.25 3.38,2.34 5.15,3.35c1.71,0.97 3.46,1.87 5.23,2.71c-2.06,0.09 -4.12,0.27 -6.2,0.59l-1.57,0.32c-0.52,0.11 -1.05,0.28 -1.58,0.42c-1.05,0.39 -2.13,0.74 -3.15,1.63c-0.28,0.23 -0.55,0.52 -0.78,0.86c-12.77,-1.67 -25.46,-4.11 -37.96,-7.32c-0.28,-0.08 -0.57,0.09 -0.65,0.38c-0.07,0.28 0.1,0.56 0.37,0.64c12.34,3.6 24.9,6.45 37.6,8.53c0.06,0.35 0.1,0.72 0.22,1.01c0.51,1.35 1.37,2.2 2.22,2.93c1.71,1.48 3.6,2.46 5.52,3.35c1.73,0.79 3.51,1.44 5.32,2c-10.66,3 -22.09,3.35 -32.93,0.91c-0.29,-0.07 -0.58,0.11 -0.64,0.4c-0.06,0.28 0.11,0.56 0.4,0.63c11.75,2.8 24.27,2.38 35.86,-1.18c2.37,0.61 4.77,1.09 7.2,1.41c-1.07,0.94 -2.12,1.9 -3.11,2.93c-1.68,1.73 -3.28,3.57 -4.62,5.64c-1.34,2.05 -2.52,4.29 -3.05,6.84c-0.24,1.29 -0.31,2.65 0,4.04c0.3,1.38 1.17,2.74 2.36,3.59c1.2,0.86 2.6,1.23 3.93,1.35c1.33,0.07 2.64,-0.04 3.86,-0.34c2.48,-0.56 4.74,-1.6 6.85,-2.81c1.25,-0.72 2.44,-1.51 3.6,-2.34c-1.11,1.73 -2.15,3.51 -3.09,5.36c-1.21,2.47 -2.38,5.02 -2.61,8.05c-0.05,0.76 0,1.56 0.22,2.37c0.04,0.16 0.1,0.32 0.16,0.47c-6.68,7.55 -14.34,14.23 -22.77,19.82c-0.25,0.16 -0.31,0.49 -0.15,0.74c0.16,0.24 0.48,0.31 0.72,0.16c8.53,-5.28 16.38,-11.68 23.32,-18.97c0.01,0.01 0.02,0.02 0.03,0.03c1.34,1.27 3.07,1.53 4.52,1.55c2.18,-0.02 4.18,-0.5 6.1,-1.15c-4.53,11.6 -10.36,22.72 -17.38,33.04c-0.17,0.24 -0.1,0.57 0.14,0.74c0.24,0.16 0.56,0.1 0.73,-0.13c7.54,-10.69 13.81,-22.27 18.68,-34.44c2.53,-1.03 4.94,-2.28 7.27,-3.66c3.21,-1.91 6.25,-4.08 9.14,-6.42c-1.08,2.36 -2.12,4.76 -3.01,7.23c-0.72,2.05 -1.4,4.13 -1.63,6.45c-0.04,0.59 -0.05,1.19 0.04,1.84c0.1,0.63 0.32,1.37 0.88,1.98c0.56,0.64 1.42,0.91 2.1,0.96c0.7,0.04 1.32,-0.06 1.9,-0.2c2.3,-0.62 4.18,-1.74 6.05,-2.86c1.85,-1.14 3.62,-2.37 5.36,-3.64c2.57,-1.87 5.05,-3.84 7.52,-5.82c-1.39,3.98 -2.68,8.01 -3.63,12.16c-0.52,2.44 -1.03,4.91 -0.92,7.55c-6.31,9.4 -14.02,17.86 -22.83,25c-0.23,0.18 -0.27,0.52 -0.08,0.74c0.18,0.23 0.51,0.27 0.74,0.09c8.58,-6.77 16.17,-14.79 22.49,-23.71c0.08,0.23 0.17,0.47 0.29,0.71c0.34,0.74 1.1,1.5 2.02,1.69c0.89,0.2 1.7,0.04 2.41,-0.18c0.71,-0.22 1.35,-0.54 1.96,-0.87c1.19,-0.68 2.27,-1.45 3.31,-2.27c-3.46,7.76 -7.19,15.42 -11.57,22.69c-0.15,0.25 -0.07,0.58 0.18,0.73c0.25,0.16 0.58,0.07 0.73,-0.17c4.96,-8.09 9.11,-16.61 12.97,-25.24c0.28,-0.25 0.55,-0.49 0.82,-0.74c1.96,-1.83 3.81,-3.77 5.61,-5.75c3.06,-3.38 5.95,-6.91 8.73,-10.52c-0.19,1.81 -0.44,3.64 -0.66,5.47c-0.31,2.61 -0.57,5.24 -0.59,7.9c0,2.64 0.2,5.38 1.28,7.93c0.53,1.26 1.33,2.46 2.4,3.37c0.24,0.2 0.48,0.39 0.74,0.56c-1.01,7.56 -2.47,15.06 -4.39,22.45c-0.77,3.03 -1.66,6.08 -3.34,8.71c-0.38,0.6 -0.85,1.19 -1.53,1.34c-1.47,0.31 -2.35,-1.58 -2.59,-3.05c-0.78,-4.67 -0.92,-9.45 -0.44,-14.15c-1.34,4.01 -2.67,8.02 -4.01,12.01c-0.44,1.33 -0.91,2.71 -1.87,3.73c-0.97,1.02 -2.57,1.57 -3.8,0.91c-1.52,-0.82 -1.72,-2.88 -1.64,-4.6c0.19,-3.66 0.8,-7.28 0.85,-9.9c-4.94,4.59 -9.88,9.2 -14.84,13.79c-0.88,0.83 -1.78,1.66 -2.88,2.13c-1.1,0.49 -2.46,0.55 -3.44,-0.14c-1.02,-0.7 -1.42,-2.05 -1.32,-3.27c0.1,-1.23 0.64,-2.38 1.18,-3.49c3.09,-6.44 6.55,-12.7 10.41,-18.77c-7.68,8.07 -15.38,16.16 -24.04,23.14c-2.15,1.74 -4.42,3.43 -7.07,4.19c-1.25,0.35 -2.66,0.47 -3.79,-0.18c-1.42,-0.81 -1.99,-2.67 -1.75,-4.3c0.22,-1.63 1.08,-3.09 1.93,-4.5c3.18,-5.38 6.37,-10.76 9.15,-17.74c-6.3,6.38 -12.59,12.76 -19.21,18.81c-4.6,4.2 -9.56,8.33 -15.56,9.98c-2.29,0.64 -5.09,0.73 -6.65,-1.05c-1.34,-1.54 -1.2,-3.84 -0.79,-5.83c3.19,-15.83 17.27,-26.96 24.47,-41.41c-8.97,9.98 -18.18,20.16 -30.03,26.43c-1.85,0.98 -3.82,1.86 -5.91,1.92c-2.09,0.05 -4.33,-0.92 -5.21,-2.81c-0.56,-1.21 -0.51,-2.61 -0.35,-3.93c0.94,-7.38 5.08,-13.97 9.74,-19.76c4.67,-5.81 9.98,-11.13 13.12,-17.78c-11.72,1.26 -23.79,-0.86 -34.38,-6.04c-2.31,-1.14 -4.89,-2.97 -4.72,-5.55c0.18,-2.74 3.3,-4.18 5.95,-4.89c3.7,-0.98 7.46,-1.68 11.26,-2.08c-4.49,-1.34 -8.7,-3.58 -12.3,-6.56c-1.89,-1.56 -3.76,-3.73 -3.71,-6.5c-10.99,-1.93 -21.43,-6.89 -29.85,-14.19c-1.57,-1.36 -3.22,-3.34 -2.5,-5.29c0.43,-1.17 1.59,-1.88 2.69,-2.44c7.73,-3.81 16.77,-3.68 25.36,-3.02c8.87,0.66 17.69,1.79 26.69,2.11c-16.09,-5.63 -31.32,-13.73 -44.98,-23.92c-4.81,-3.58 -9.45,-7.46 -13.24,-12.11c-0.97,-1.21 -1.95,-2.79 -1.34,-4.21c0.32,-0.74 1.01,-1.26 1.73,-1.61c2.03,-0.98 4.41,-0.86 6.67,-0.66c11.99,1.07 23.83,3.9 35.01,8.37c-4.08,-2.67 -7.78,-5.92 -10.99,-9.59c-0.66,-0.76 -1.34,-1.62 -1.37,-2.62c-0.04,-1.16 0.81,-2.21 1.85,-2.72c1.03,-0.52 2.23,-0.59 3.4,-0.61c9.92,-0.09 19.36,3.97 28.93,7.85c-11.89,-5.14 -23.28,-11.42 -33.96,-18.75c-8.13,-5.57 -15.96,-11.88 -21.61,-19.96c-0.96,-1.36 -1.88,-2.87 -1.92,-4.53c-0.05,-1.67 1.11,-3.48 3.28,-3.25c-7.52,-6.47 -13.84,-14.34 -18.51,-23.09c-0.55,-1.03 -1.07,-2.28 -0.51,-3.29c0.76,-1.36 2.78,-1.14 4.26,-0.63c4.59,1.56 8.79,4.05 12.89,6.64c8.94,5.65 17.54,11.8 26.13,17.96c6.83,4.88 13.65,9.77 20.7,14.61c-12.18,-8.87 -23.48,-18.94 -33.68,-30.02c-3.05,-3.33 -6.06,-6.82 -7.79,-10.98c-0.17,-0.4 -0.32,-0.84 -0.23,-1.27c0.28,-1.29 2.16,-1.11 3.38,-0.59c6.02,2.58 11.77,5.79 17.15,8.32c-5.84,-3.63 -11.61,-7.43 -17.27,-11.36c-6.03,-4.21 -12.19,-8.86 -15.24,-15.54c-0.61,-1.33 -1.06,-2.97 -0.25,-4.19c-5.94,-2.76 -10.31,-8.68 -10.99,-15.81c-2.59,-2.16 -5.17,-4.43 -6.95,-7.29c-1.78,-2.86 -2.69,-6.44 -1.14,-10.54c-3.42,-2.53 -6.36,-5.69 -8.62,-9.28c-0.74,-1.18 -1.43,-2.44 -1.61,-3.82c-0.17,-1.38 0.25,-2.91 1.82,-4.3c-4.88,-4.82 -8.63,-10.79 -10.87,-17.28c-0.35,-1.02 -0.64,-2.19 -0.12,-3.13c0.42,-0.75 1.29,-1.16 2.15,-1.22c0.85,-0.06 1.7,0.17 2.5,0.45c1.54,0.53 3.01,1.22 4.05,1.93c-3.78,-5.18 -7.49,-10.76 -8.24,-17.12z" fill="#8d8741" id="svg_16"/>
    </g>
   </g>
  </g>
 </g>
</svg>